<svg xmlns="http://www.w3.org/2000/svg" width="37.037" height="35" viewBox="0 0 37.037 35"><g transform="translate(0 -14.096)"><path d="M87.439,158.58a4.881,4.881,0,1,0,4.881,4.881A4.886,4.886,0,0,0,87.439,158.58Z" transform="translate(-76.592 -134.043)" fill="#93c01f"/><path d="M18.847,306.3v-6.641a6,6,0,0,0-5.988-5.988h-.928v9.705H9.763v-9.705H8.835a6,6,0,0,0-5.988,5.988V306.3H0v2.168H37V306.3Z" transform="translate(0 -259.368)" fill="#93c01f"/><path d="M193.552,23.5A14.179,14.179,0,0,0,169.6,18.869l1.623,1.437a12.009,12.009,0,1,1,15.453,18.087l1.146-2.853-2.012-.808L183.177,41.3l6.71,2.031.628-2.075-2.911-.881A14.2,14.2,0,0,0,193.552,23.5Z" transform="translate(-157.347 0)" fill="#93c01f"/><g transform="translate(17.385 23.647)"><path d="M244.852,150.4a2.892,2.892,0,0,0,.648-1.779,2.352,2.352,0,0,0-.542-1.6,2.321,2.321,0,0,0-1.833-.75,2.382,2.382,0,0,0-1.666.643,2.3,2.3,0,0,0-.739,1.587l-.018.316,1.563.3.038-.394c.055-.567.362-.906.822-.906a.678.678,0,0,1,.582.215.9.9,0,0,1,.187.594,1.675,1.675,0,0,1-.509,1.144l-2.819,3.611v.886h5.068v-1.544H243.06Z" transform="translate(-240.566 -146.27)" fill="#93c01f"/><g transform="translate(5.392 0.082)"><path d="M319.914,152.246v-4.838h-1.536l-3.193,5.565v.817h3.123v1.531h1.606v-1.531h.894v-1.544Zm-2.58,0,.974-1.737v1.737Z" transform="translate(-315.185 -147.408)" fill="#93c01f"/></g></g></g></svg>