<svg xmlns="http://www.w3.org/2000/svg" width="41.743" height="40" viewBox="0 0 41.743 40"><g transform="translate(0 -10.691)"><path d="M210.148,236.2h.005a.612.612,0,0,0,.611-.606c0-.273.01-1.192.018-2.356h.676a.611.611,0,0,0,0-1.223h-.668c.016-2.511.027-5.454,0-5.819a1.33,1.33,0,0,0-.861-1.21,1.237,1.237,0,0,0-1.356.529c-.569.7-3.605,6.192-3.949,6.816a.612.612,0,0,0,.535.907h4.4c-.006.821-.012,1.623-.018,2.346A.612.612,0,0,0,210.148,236.2Zm-3.954-4.185c1.28-2.3,2.994-5.322,3.324-5.727.015-.019.029-.035.042-.049a.465.465,0,0,1,.009.059c.024.292.016,2.948,0,5.717Z" transform="translate(-187.868 -196.785)" fill="#93c01f"/><path d="M121.864,229.125c-1.6,2.281-2.549,3.529-3.061,4.2-.607.795-.751.984-.637,1.356a.664.664,0,0,0,.433.435,9.847,9.847,0,0,0,2.114.072c.753,0,1.785-.007,3.2-.025a.611.611,0,0,0-.008-1.223H123.9c-1.459.018-3.052.028-4.044.021.534-.7,1.48-1.948,3.01-4.134a7.115,7.115,0,0,0,1.162-2.392c.017-.1.062-.427.065-.526a3.18,3.18,0,0,0-6.3-.616.611.611,0,0,0,1.2.236,1.957,1.957,0,0,1,3.877.344l-.04.315A6,6,0,0,1,121.864,229.125Z" transform="translate(-108.179 -195.669)" fill="#93c01f"/><path d="M354.156,53.291H346.11a.611.611,0,1,0,0,1.223h8.045a.611.611,0,0,0,0-1.223Z" transform="translate(-317.331 -39.127)" fill="#93c01f"/><path d="M354.156,86.67H346.11a.611.611,0,1,0,0,1.223h8.045a.611.611,0,0,0,0-1.223Z" transform="translate(-317.331 -69.784)" fill="#93c01f"/><path d="M354.156,120.049H346.11a.611.611,0,1,0,0,1.223h8.045a.611.611,0,0,0,0-1.223Z" transform="translate(-317.331 -100.442)" fill="#93c01f"/><path d="M40.423,10.691H34.051a.628.628,0,0,0-.637.593.611.611,0,0,0,.611.63h6.4a.1.1,0,0,1,.1.1V22.555a.1.1,0,0,1-.1.1H29.073a1.317,1.317,0,0,0-.887.343l-2.939,2.67a.1.1,0,0,1-.162-.072V12.011a.1.1,0,0,1,.1-.1h6.373a.628.628,0,0,0,.637-.593.611.611,0,0,0-.611-.63h-6.4a1.32,1.32,0,0,0-1.32,1.32v6.371A16.9,16.9,0,0,0,3,43.406a.611.611,0,0,0,.846.158A.634.634,0,0,0,4,42.693,15.681,15.681,0,0,1,23.862,19.736V22.8A12.882,12.882,0,0,0,16.9,20.786a13,13,0,1,0,5.474,24.8.629.629,0,0,0,.328-.81.611.611,0,0,0-.82-.31,11.78,11.78,0,1,1,1.976-20.18v1.277a1.327,1.327,0,0,0,1.325,1.355,1.307,1.307,0,0,0,.882-.346l.083-.076A11.779,11.779,0,0,1,26.4,40.749L25.9,39.056a.611.611,0,0,0-1.171.351l.869,2.9a.611.611,0,0,0,.761.41l2.9-.868a.611.611,0,1,0-.351-1.171l-1.21.362a13,13,0,0,0-.636-15.368c1.508-1.364,1.849-1.686,1.943-1.764a.056.056,0,0,1,.08.008A15.678,15.678,0,0,1,5.49,44.539a.611.611,0,1,0-.89.839,16.9,16.9,0,0,0,25.991-21.5h9.832a1.32,1.32,0,0,0,1.32-1.32V12.011a1.319,1.319,0,0,0-1.32-1.32Z" fill="#93c01f"/></g></svg>