<svg xmlns="http://www.w3.org/2000/svg" xmlns:xlink="http://www.w3.org/1999/xlink" width="35" height="35" viewBox="0 0 35 35"><defs><style>.a{fill:url(#a);}.b{fill:#fff;}.c{opacity:0.34;}</style><linearGradient id="a" x1="0.5" x2="0.5" y2="1" gradientUnits="objectBoundingBox"><stop offset="0" stop-color="#b9f61c"/><stop offset="1" stop-color="#93c01f"/></linearGradient></defs><g transform="translate(-331 -464)"><circle class="a" cx="17.5" cy="17.5" r="17.5" transform="translate(331 464)"/><g transform="translate(338 402.333)"><path class="b" d="M2.092,71.688H0v3.7H.788a.553.553,0,0,1,.553.553v6.483a.553.553,0,0,1-.553.553H0v3.713H20.832V83.009h-.788a.553.553,0,0,1-.553-.553V75.973a.553.553,0,0,1,.553-.553h.788V71.688Zm13.191,1.327h1.365v1H15.283Zm-2.775,0h1.365v1H12.508v-1Zm-2.775,0H11.1v1H9.733v-1Zm-2.775,0H8.324v1H6.959Zm-2.775,0H5.549v1H4.184Zm-2.775,0H2.775v1H1.41ZM2.775,85.36H1.41V84.314H2.775V85.36Zm2.775,0H4.184V84.314H5.549Zm2.775,0H6.959V84.314H8.324Zm.69-2.372H3.281a.934.934,0,0,1-.934-.934V76.32a.934.934,0,0,1,.934-.934H9.014a.934.934,0,0,1,.934.934v5.733A.935.935,0,0,1,9.014,82.988ZM11.1,85.36H9.733V84.314H11.1Zm2.775,0H12.508V84.314h1.365V85.36Zm2.775,0H15.283V84.314h1.365Zm-4.864-2.372a.934.934,0,0,1-.934-.934V76.32a.934.934,0,0,1,.934-.934h5.733a.934.934,0,0,1,.934.934v5.733a.934.934,0,0,1-.934.934Zm7.639,2.372H18.057V84.314h1.365Zm0-11.341H18.057v-1h1.365Z" transform="translate(0 -0.02)"/><g class="c" transform="translate(6.914 71.667)"><path class="b" d="M201.427,404.285v-.144l-.133.144Z" transform="translate(-200.018 -390.614)"/><path class="b" d="M178.76,71.667q-.115.67-.281,1.327h1.189v1H178.3s-.363.8-.579,1.367h2.814a.934.934,0,0,1,.934.934v5.733a.934.934,0,0,1-.934.934H174.8a.934.934,0,0,1-.928-.825c-.851,1.139-1.72,2.164-2.532,3.053v.144h-.133c-.449.487-.879.931-1.276,1.327h13.916V82.988h-.788a.553.553,0,0,1-.553-.553V75.952a.553.553,0,0,1,.553-.553h.788V71.667Zm-4.641,13.672h-1.365V84.293h1.365Zm2.775,0h-1.365V84.293h1.365v1.046Zm2.775,0H178.3V84.293h1.365v1.046Zm2.775,0h-1.365V84.293h1.365Zm0-11.341h-1.365v-1h1.365Z" transform="translate(-169.936 -71.667)"/></g></g></g></svg>