<svg xmlns="http://www.w3.org/2000/svg" width="184.286" height="60" viewBox="0 0 184.286 60"><rect width="184.286" height="60" rx="6.857"/><path d="M101.416,36.887c-2.383,0-4.128-1.169-4.328-2.951H94.313c.175,3.249,2.886,5.3,6.9,5.3,4.291,0,6.99-2.1,6.99-5.465,0-2.627-1.544-4.108-5.258-4.979l-1.995-.486c-2.334-.572-3.288-1.319-3.288-2.589,0-1.593,1.494-2.688,3.676-2.688s3.676,1.082,3.84,2.875h2.735c-.088-3.1-2.711-5.228-6.537-5.228-3.866,0-6.588,2.129-6.588,5.228,0,2.5,1.544,4.045,4.868,4.842l2.346.561c2.347.572,3.338,1.407,3.338,2.8C105.343,35.717,103.7,36.887,101.416,36.887Zm-47.206-2.8h-6.9L45.651,38.94H42.728l6.537-17.962H52.3L58.839,38.94H55.866Zm-6.188-2.24h5.47l-2.7-7.879h-.075Zm19.425,7.232c3.313,0,5.509-2.615,5.509-6.684s-2.208-6.685-5.559-6.685a4.691,4.691,0,0,0-4.2,2.315h-.05V25.845H60.522V43.273h2.71V36.786h.063A4.483,4.483,0,0,0,67.447,39.077Zm2.723-6.684c0-2.651-1.381-4.394-3.489-4.394-2.07,0-3.463,1.78-3.463,4.394,0,2.639,1.392,4.406,3.463,4.406C68.789,36.8,70.17,35.069,70.17,32.393Zm11.806,6.684c3.313,0,5.509-2.615,5.509-6.684s-2.208-6.685-5.559-6.685a4.691,4.691,0,0,0-4.2,2.315h-.05V25.845H75.051V43.273h2.71V36.786h.063A4.483,4.483,0,0,0,81.976,39.077ZM84.7,32.393C84.7,29.742,83.318,28,81.211,28c-2.07,0-3.463,1.78-3.463,4.394,0,2.639,1.392,4.406,3.463,4.406C83.318,36.8,84.7,35.069,84.7,32.393Zm29.354-9.647v3.1h2.511v2.129h-2.511v7.219c0,1.122.5,1.644,1.606,1.644a8.469,8.469,0,0,0,.891-.062v2.116a7.5,7.5,0,0,1-1.505.124c-2.672,0-3.714-1-3.714-3.536V27.974h-1.919V25.845h1.919v-3.1Zm10.223,2.938c-3.814,0-6.26,2.589-6.26,6.71s2.421,6.709,6.26,6.709,6.262-2.578,6.262-6.709S128.1,25.684,124.277,25.684Zm3.5,6.71c0-2.826-1.306-4.495-3.5-4.495s-3.5,1.681-3.5,4.495c0,2.838,1.3,4.493,3.5,4.493S127.781,35.231,127.781,32.393Zm7.578-6.548h-2.584v13.1h2.709V31.173a2.7,2.7,0,0,1,.714-2.151,2.74,2.74,0,0,1,2.11-.862,3.811,3.811,0,0,1,1.217.162V25.808a4.219,4.219,0,0,0-.929-.1,3.146,3.146,0,0,0-3.175,2.366h-.062Zm16.659,9.249c-.365,2.377-2.7,4.009-5.685,4.009-3.84,0-6.224-2.552-6.224-6.647s2.4-6.772,6.11-6.772c3.653,0,5.949,2.489,5.949,6.46v.921h-9.323v.162a3.4,3.4,0,0,0,.931,2.65,3.454,3.454,0,0,0,2.62,1.06,2.989,2.989,0,0,0,3.048-1.842Zm-2.559-3.908h-6.6a3.3,3.3,0,0,1,.982-2.357,3.36,3.36,0,0,1,2.38-.967,3.185,3.185,0,0,1,2.35.96A3.136,3.136,0,0,1,149.458,31.186Z" transform="translate(10.682 5.17)" fill="#fff" fill-rule="evenodd"/><path d="M78.33,9.763h1.3v9.056h-1.3ZM50.391,11.371a3.866,3.866,0,0,0-3.07-1.183H44.178v8.631h3.142c2.591,0,4.094-1.585,4.094-4.342A3.8,3.8,0,0,0,50.391,11.371ZM47.17,17.6H45.53v-6.19h1.64a2.754,2.754,0,0,1,2.168.872,2.707,2.707,0,0,1,.7,2.214,2.7,2.7,0,0,1-.69,2.229A2.746,2.746,0,0,1,47.17,17.6Zm5.77-2.039A3.078,3.078,0,0,1,54.4,12.644a3.132,3.132,0,0,1,3.28,0,3.078,3.078,0,0,1,1.456,2.916,3.078,3.078,0,0,1-1.454,2.92,3.132,3.132,0,0,1-3.284,0A3.078,3.078,0,0,1,52.94,15.56Zm3.1-2.238c1.122,0,1.761.826,1.761,2.238h0c0,1.417-.639,2.242-1.761,2.242s-1.76-.819-1.76-2.242S54.913,13.322,56.039,13.322Zm11.324,5.5H66.019l-1.357-4.8h-.1l-1.351,4.8H61.877l-1.81-6.513h1.314l1.176,4.97h.1L64,12.306h1.243l1.35,4.97h.1l1.17-4.97h1.3Zm4.574-6.513H70.69v6.513h1.3v-3.81a1.487,1.487,0,0,1,.4-1.183,1.512,1.512,0,0,1,1.166-.468c.958,0,1.417.521,1.417,1.567v3.894h1.3V14.6a2.108,2.108,0,0,0-.549-1.753,2.144,2.144,0,0,0-1.723-.669,1.968,1.968,0,0,0-1.959,1.16h-.1Zm10.947.338a3.078,3.078,0,0,0-1.456,2.916,3.078,3.078,0,0,0,1.455,2.92,3.133,3.133,0,0,0,3.284,0,3.078,3.078,0,0,0,1.455-2.92,3.078,3.078,0,0,0-1.456-2.916A3.132,3.132,0,0,0,82.884,12.644Zm3.4,2.916c0-1.412-.639-2.238-1.761-2.238s-1.76.826-1.76,2.238S83.4,17.8,84.524,17.8,86.286,16.977,86.286,15.56Zm5.14-.527c-1.562.1-2.442.772-2.442,1.944a1.96,1.96,0,0,0,.658,1.456,1.993,1.993,0,0,0,1.53.493A2.214,2.214,0,0,0,93.144,17.9h.1v.915h1.247v-4.45c0-1.376-.928-2.189-2.574-2.189-1.489,0-2.55.717-2.682,1.836h1.254c.144-.46.645-.724,1.368-.724.886,0,1.344.388,1.344,1.076v.562ZM93.2,16.42v-.545l-1.6.1c-.9.06-1.314.365-1.314.939s.513.927,1.217.927a1.556,1.556,0,0,0,1.154-.354A1.531,1.531,0,0,0,93.2,16.42ZM98.922,12.2c-1.659,0-2.725,1.3-2.725,3.362s1.055,3.367,2.725,3.367a2.283,2.283,0,0,0,2.062-1.136h.1v1.029h1.242V9.763h-1.3V13.34h-.1A2.167,2.167,0,0,0,98.922,12.2ZM97.534,15.56c0,1.381.656,2.213,1.754,2.213s1.767-.843,1.767-2.207-.682-2.213-1.767-2.213-1.754.837-1.754,2.207Zm11.61-2.916a3.078,3.078,0,0,0-1.456,2.916,3.078,3.078,0,0,0,1.454,2.92,3.132,3.132,0,0,0,3.283,0,3.077,3.077,0,0,0,1.454-2.92,3.077,3.077,0,0,0-1.456-2.916A3.132,3.132,0,0,0,109.144,12.644Zm3.4,2.916c0-1.412-.639-2.238-1.761-2.238s-1.76.826-1.76,2.238.633,2.242,1.76,2.242S112.548,16.977,112.548,15.56Zm4.319-3.254h-1.248v6.513h1.295v-3.81a1.488,1.488,0,0,1,.4-1.183,1.512,1.512,0,0,1,1.166-.468c.959,0,1.417.521,1.417,1.567v3.894h1.3V14.6a2.106,2.106,0,0,0-.549-1.753,2.146,2.146,0,0,0-1.724-.669,1.967,1.967,0,0,0-1.959,1.16h-.1Zm11.651-1.622v1.651h1.423v1.083h-1.423v3.349c0,.682.283.981.927.981a4.348,4.348,0,0,0,.5-.03v1.071a4.286,4.286,0,0,1-.705.066c-1.441,0-2.015-.5-2.015-1.759V13.418h-1.042V12.335h1.042V10.684Zm4.475-.921h-1.284v9.056h1.3v-3.8a1.51,1.51,0,0,1,.439-1.207,1.541,1.541,0,0,1,1.214-.444c.915,0,1.4.527,1.4,1.567v3.888h1.3V14.614a2.136,2.136,0,0,0-.555-1.742,2.171,2.171,0,0,0-1.706-.687,2.024,2.024,0,0,0-2,1.167h-.1Zm11.921,7.3a2.666,2.666,0,0,1-2.845,1.884,2.992,2.992,0,0,1-2.3-.984,2.942,2.942,0,0,1-.731-2.377,2.987,2.987,0,0,1,.73-2.387,3.04,3.04,0,0,1,2.3-1.016c1.827,0,2.929,1.238,2.929,3.283v.449h-4.635v.072a1.713,1.713,0,0,0,.458,1.317,1.741,1.741,0,0,0,1.29.549,1.578,1.578,0,0,0,1.563-.79Zm-1.242-2.1h-3.316a1.659,1.659,0,0,1,.492-1.2,1.684,1.684,0,0,1,1.208-.488,1.59,1.59,0,0,1,1.185.489A1.562,1.562,0,0,1,143.672,14.961Z" transform="translate(11.045 2.441)" fill="#fff" fill-rule="evenodd"/><path d="M33.421,10.091A7.011,7.011,0,0,1,31.8,15.14a6,6,0,0,1-4.719,2.214,6.673,6.673,0,0,1,1.668-4.862A7.248,7.248,0,0,1,33.421,10.091Zm5.793,10.745a7.146,7.146,0,0,0-3.436,6.006A6.916,6.916,0,0,0,40.034,33.2a15.806,15.806,0,0,1-2.214,4.473c-1.3,1.935-2.671,3.826-4.841,3.861a5.462,5.462,0,0,1-2.455-.578,6.476,6.476,0,0,0-2.781-.653,6.865,6.865,0,0,0-2.929.676,6.186,6.186,0,0,1-2.29.6c-2.067.076-3.646-2.065-5-3.982-2.7-3.915-4.8-11.033-1.985-15.876a7.758,7.758,0,0,1,6.522-3.946,8.569,8.569,0,0,1,3.283.817,6.053,6.053,0,0,0,1.978.569,6.167,6.167,0,0,0,1.9-.558,9.07,9.07,0,0,1,4.168-.9A7.4,7.4,0,0,1,39.214,20.835Z" transform="translate(3.551 2.523)" fill="#fff" fill-rule="evenodd"/></svg>