<svg xmlns="http://www.w3.org/2000/svg" width="29.736" height="35" viewBox="0 0 29.736 35"><g transform="translate(-38.5)"><path d="M103.627,121h-4.1a1.025,1.025,0,0,0-1.025,1.025v4.1a1.025,1.025,0,0,0,1.025,1.025h4.1a1.025,1.025,0,0,0,1.025-1.025v-4.1A1.025,1.025,0,0,0,103.627,121Zm-1.025,4.1h-2.051v-2.051H102.6Z" transform="translate(-55.898 -112.729)" fill="#93c01f"/><path d="M63.65,19.948a3.076,3.076,0,0,0-2.592-1.423V3.076A3.08,3.08,0,0,0,57.982,0H41.576A3.08,3.08,0,0,0,38.5,3.076V29.8a3.08,3.08,0,0,0,3.076,3.076c7.7,0,7.2.005,7.319-.011l1.041,1.652A1.026,1.026,0,0,0,50.8,35H65.16a1.025,1.025,0,0,0,.859-.465L68.07,31.39a1.026,1.026,0,0,0,.167-.56v-8.2a3.079,3.079,0,0,0-4.586-2.679Zm-8.744-7.815a3.063,3.063,0,0,0-2.051-.786V10.322h2.051Zm1.025,2.29A1.025,1.025,0,0,0,56.957,13.4V9.3a1.025,1.025,0,0,0-1.025-1.025h-4.1A1.025,1.025,0,0,0,50.8,9.3v2.836a3.069,3.069,0,0,0-1.026,2.291v8.259l-.246-.392a3.091,3.091,0,1,0-5.234,3.29l.724,1.148H40.551V6.221H59.008V18.286a3.067,3.067,0,0,0-3.077-.61V14.424ZM41.576,2.051H57.982a1.027,1.027,0,0,1,1.025,1.025V4.17H40.551V3.076A1.027,1.027,0,0,1,41.576,2.051Zm0,28.779A1.027,1.027,0,0,1,40.551,29.8V28.779h5.765l1.293,2.051Zm24.609-.3L64.6,32.949H51.37l-5.336-8.462A1.04,1.04,0,1,1,47.8,23.38l2.14,3.415a1.025,1.025,0,0,0,1.894-.544V14.424a1.025,1.025,0,0,1,2.051,0V25.771a1.025,1.025,0,0,0,2.051,0v-5.2a1.025,1.025,0,1,1,2.051,0v5.2a1.025,1.025,0,0,0,2.051,0V21.6a1.025,1.025,0,1,1,2.051,0v4.17a1.025,1.025,0,1,0,2.051,0V22.627a1.026,1.026,0,0,1,2.051,0v7.9Z" fill="#93c01f"/></g></svg>