<svg xmlns="http://www.w3.org/2000/svg" width="22.756" height="20" viewBox="0 0 22.756 20"><g transform="translate(0 -31)"><path d="M.666,48.333H4v2A.667.667,0,0,0,4.666,51H22.089a.667.667,0,0,0,.667-.667V33a.667.667,0,0,0-.667-.667H18.755v-.667a.667.667,0,1,0-1.333,0v.667H14.044v-.667a.667.667,0,1,0-1.333,0v.667H9.378v-.667a.667.667,0,1,0-1.333,0v.667H4.666A.667.667,0,0,0,4,33v4C4,41.913,1.958,45.693.24,47.155a.667.667,0,0,0,.427,1.179Zm20.756,1.333H5.333V48.333H18.089a.667.667,0,0,0,.427-.155,12.3,12.3,0,0,0,2.907-4.292Zm-16.089-16H8.044v.667a.667.667,0,0,0,1.333,0v-.667h3.333v.667a.667.667,0,0,0,1.333,0v-.667h3.378v.667a.667.667,0,0,0,1.333,0v-.667h2.667v2.667H5.333Zm-.011,4H21.41A13.972,13.972,0,0,1,17.827,47H2.183A16.044,16.044,0,0,0,5.322,37.666Z" transform="translate(0)" fill="#9bcb20"/></g></svg>