<svg xmlns="http://www.w3.org/2000/svg" width="52.626" height="60" viewBox="0 0 52.626 60"><g transform="translate(-49 -19.989)"><path d="M98.873,357H98.85a3.114,3.114,0,0,0,.022,6.229H98.9a3.135,3.135,0,0,0,3.112-3.125v-.013A3.137,3.137,0,0,0,98.873,357Zm.009,4.444a1.32,1.32,0,0,1-1.33-1.311,1.339,1.339,0,0,1,.38-.948,1.313,1.313,0,0,1,.931-.405h.01a1.332,1.332,0,1,1,.01,2.665Z" transform="translate(-40.804 -294.171)" fill="#93c01f"/><path d="M371.2,355h-.023a3.114,3.114,0,0,0,.022,6.229h.024a3.058,3.058,0,0,0,2.186-.927A3.118,3.118,0,0,0,371.2,355Zm1.313,3.113a1.326,1.326,0,0,1-.376.94,1.3,1.3,0,0,1-.928.4h-.01a1.314,1.314,0,0,1-.927-.383,1.339,1.339,0,0,1,.918-2.287h.01a1.322,1.322,0,0,1,1.313,1.322Z" transform="translate(-278.515 -292.426)" fill="#93c01f"/><path d="M101.224,226.044a3.737,3.737,0,0,0-3.722-2.29h-.039c-1.028,0-2.872.017-3.773.021l-1.716-3.106C90.737,218.491,88.94,216,85.968,216h-.039l-21.232.154c-2.437.018-4.583,1.71-6.046,4.768l-1.743,3.142c-.9,0-2.766.015-3.808.023a3.744,3.744,0,0,0-3.728,2.342A8.021,8.021,0,0,0,49,228.376a.942.942,0,0,0,.25.678.913.913,0,0,0,.639.293H49.9l2.357-.043a5.235,5.235,0,0,0-1.683,3.98.8.8,0,0,0,.008.106l1.318,9.828a3.031,3.031,0,0,0,2.437,2.881l.022,3.056a1.945,1.945,0,0,0,1.956,1.929h.015l3.238-.018a1.956,1.956,0,0,0,1.942-1.968l-.022-2.994,27.916-.2.022,3a1.95,1.95,0,0,0,1.956,1.934H91.4l3.238-.02a1.957,1.957,0,0,0,1.942-1.969l-.023-3.068a3.03,3.03,0,0,0,2.339-2.9l1.228-9.847a.873.873,0,0,0,.007-.117,5.315,5.315,0,0,0-1.313-3.493,4.822,4.822,0,0,0-.478-.468l2.407-.019a.89.89,0,0,0,.882-.941,8.022,8.022,0,0,0-.4-1.943Zm-41-4.284c.009-.016.018-.033.025-.049.668-1.4,2.137-3.76,4.464-3.777l21.232-.154h.025c1.624,0,2.959,1.128,4.452,3.76l3.5,6.343-3.515.025a5.31,5.31,0,0,0-10.516.077l-23.217.171ZM88.6,227.92l-6.9.051a3.531,3.531,0,0,1,6.9-.051Zm-37.683-.407c.038-.168.086-.349.146-.535a2.055,2.055,0,0,1,2.048-1.113c.735-.005,1.879-.013,2.805-.017l-.9,1.63Zm8.634,21.773-3.238.018h0a.172.172,0,0,1-.124-.045.165.165,0,0,1-.053-.121l-.022-2.994,3.591-.025.022,3a.172.172,0,0,1-.175.171Zm35.067-.256-3.238.02h0a.172.172,0,0,1-.124-.047.168.168,0,0,1-.053-.122l-.022-2.994,3.591-.025.022,2.993a.175.175,0,0,1-.176.175Zm3.726-16.177L97.119,242.7a.9.9,0,0,0-.007.117,1.249,1.249,0,0,1-1.234,1.252l-40.95.3a1.248,1.248,0,0,1-.88-.359,1.233,1.233,0,0,1-.372-.874.891.891,0,0,0-.008-.112l-1.317-9.823a3.092,3.092,0,0,1,2.669-3.254.917.917,0,0,0,.137.03h.006l40.236-.339c.006,0,.012-.042.018-.042h.027a2.727,2.727,0,0,1,2.038.969A3.615,3.615,0,0,1,98.346,232.853Zm-2.773-5.665-.9-1.637c.926,0,2.072-.017,2.806-.017H97.5a2.047,2.047,0,0,1,2.039,1.086c.064.185.114.368.154.536Z" transform="translate(0 -171.095)" fill="#93c01f"/><path d="M213.906,411H213.9l-12.521.122a.892.892,0,1,0,.006,1.785h.007l12.521-.08a.914.914,0,0,0-.006-1.827Z" transform="translate(-132.232 -341.307)" fill="#93c01f"/><path d="M205.865,362.813h.007a.879.879,0,0,0,.883-.887l-.015-2.04a.893.893,0,0,0-.89-.887h-.007a.9.9,0,0,0-.883.9l.015,2.031A.885.885,0,0,0,205.865,362.813Z" transform="translate(-136.136 -295.917)" fill="#93c01f"/><path d="M176.17,359h-.007a.907.907,0,0,0-.883.919l.015,2.024a.879.879,0,0,0,.89.871h.007a.867.867,0,0,0,.883-.873l-.015-2.047a.9.9,0,0,0-.89-.894Z" transform="translate(-110.228 -295.917)" fill="#93c01f"/><path d="M324.575,358h-.007a.9.9,0,0,0-.883.913l.015,2.027a.882.882,0,0,0,.89.874h.007a.872.872,0,0,0,.883-.879l-.015-2.044A.9.9,0,0,0,324.575,358Z" transform="translate(-239.769 -295.044)" fill="#93c01f"/><path d="M235.548,362.745h.007a.891.891,0,0,0,.883-.9l-.015-2.039a.89.89,0,0,0-1.78.012l.015,2.041A.893.893,0,0,0,235.548,362.745Z" transform="translate(-162.045 -295.849)" fill="#93c01f"/><path d="M265.227,362.813h.007a.9.9,0,0,0,.883-.914l-.015-2.027a.881.881,0,0,0-.89-.873h-.007a.871.871,0,0,0-.883.877l.015,2.045A.9.9,0,0,0,265.227,362.813Z" transform="translate(-187.951 -295.917)" fill="#93c01f"/><path d="M294.91,362.411h.007c.491-.127.887-.437.883-.928l-.015-2.053a.9.9,0,0,0-.9-.891.886.886,0,0,0-.883.892l.015,2.067A.915.915,0,0,0,294.91,362.411Z" transform="translate(-213.861 -295.515)" fill="#93c01f"/><path d="M177.884,42.729a11.37,11.37,0,1,0-9.962-5.88A11.37,11.37,0,0,0,177.884,42.729Zm0-20.972a9.6,9.6,0,1,1-9.6,9.6,9.6,9.6,0,0,1,9.6-9.6Z" transform="translate(-102.571)" fill="#93c01f"/><path d="M229.059,58h-.044a2.148,2.148,0,0,1-2.125-2.146.89.89,0,1,0-1.78,0,3.932,3.932,0,0,0,3.037,3.823v1.02a.89.89,0,1,0,1.78,0v-1.02a3.926,3.926,0,0,0-.89-7.75,2.147,2.147,0,1,1,2.147-2.147.89.89,0,1,0,1.78,0,3.933,3.933,0,0,0-3.037-3.824v-.881a.89.89,0,1,0-1.78,0v.881a3.926,3.926,0,0,0,.89,7.75A2.146,2.146,0,1,1,229.059,58Z" transform="translate(-153.724 -21.118)" fill="#93c01f"/></g></svg>