<svg xmlns="http://www.w3.org/2000/svg" width="23.85" height="21" viewBox="0 0 23.85 21">
  <g id="Speech_Bubble_48_" transform="translate(0 -30.536)">
    <g id="Group_966" data-name="Group 966" transform="translate(0 30.536)">
      <path id="Path_56825" data-name="Path 56825" d="M3.471,51.536H1.781l1.195-1.195A4.044,4.044,0,0,0,4.131,47.95,9.108,9.108,0,0,1,.562,43.73a8.265,8.265,0,0,1-.239-5.3A10.368,10.368,0,0,1,4.3,32.887a12.981,12.981,0,0,1,7.669-2.351,12.856,12.856,0,0,1,8.864,3.021,9.07,9.07,0,0,1,2.262,10.39A9.329,9.329,0,0,1,20.823,47.1a12.826,12.826,0,0,1-8.859,3.033,16.119,16.119,0,0,1-4.009-.51,6.262,6.262,0,0,1-4.484,1.91Z" transform="translate(0 -30.536)" fill="#fff"/>
    </g>
  </g>
</svg>
