<svg xmlns="http://www.w3.org/2000/svg" width="35" height="35" viewBox="0 0 35 35"><g transform="translate(0 -0.001)"><path d="M33.974,484.055H1.025a1.025,1.025,0,0,1,0-2.051H33.974a1.025,1.025,0,0,1,0,2.051Z" transform="translate(0 -449.054)" fill="#93c01f"/><path d="M36.127,372.258h-4.1A1.025,1.025,0,0,1,31,371.232v-7.519A1.711,1.711,0,0,1,32.709,362h2.734a1.711,1.711,0,0,1,1.709,1.709v7.519A1.025,1.025,0,0,1,36.127,372.258Zm-3.076-2.051H35.1v-6.152H33.051Zm2.393-6.152h0Z" transform="translate(-28.881 -337.257)" fill="#93c01f"/><path d="M156.127,338.719h-4.1A1.025,1.025,0,0,1,151,337.693v-9.98A1.711,1.711,0,0,1,152.709,326h2.734a1.711,1.711,0,0,1,1.709,1.709v9.98A1.025,1.025,0,0,1,156.127,338.719Zm-3.076-2.051H155.1v-8.613h-2.051Zm2.393-8.613h0Z" transform="translate(-140.678 -303.718)" fill="#93c01f"/><path d="M276.127,287.479h-4.1A1.025,1.025,0,0,1,271,286.453v-13.74A1.711,1.711,0,0,1,272.709,271h2.734a1.711,1.711,0,0,1,1.709,1.709v13.74A1.025,1.025,0,0,1,276.127,287.479Zm-3.076-2.051H275.1V273.055h-2.051Zm2.393-12.373h0Z" transform="translate(-252.475 -252.478)" fill="#93c01f"/><path d="M396.127,194.314h-4.1A1.025,1.025,0,0,1,391,193.289V172.713A1.711,1.711,0,0,1,392.709,171h2.734a1.711,1.711,0,0,1,1.709,1.709v20.576A1.025,1.025,0,0,1,396.127,194.314Zm-3.076-2.051H395.1V173.055h-2.051Zm2.393-19.209h0Z" transform="translate(-364.272 -159.314)" fill="#93c01f"/><path d="M1.025,22.036a1.025,1.025,0,0,1,0-2.051c6.03,0,12.595-2.2,18.486-6.183C24.931,10.135,29.249,5.326,31.359.61a1.025,1.025,0,1,1,1.872.838C30.969,6.5,26.388,11.625,20.661,15.5c-6.227,4.214-13.2,6.535-19.635,6.535Z" transform="translate(0 -0.002)" fill="#93c01f"/><path d="M374.735,8.319a1.026,1.026,0,0,1-.99-.76l-1.414-5.276L367.055,3.7a1.025,1.025,0,0,1-.531-1.981L372.791.036a1.025,1.025,0,0,1,1.256.725l1.679,6.266a1.026,1.026,0,0,1-.991,1.291Z" transform="translate(-340.761 0)" fill="#93c01f"/></g></svg>