<?xml version="1.0" standalone="no"?>
<!DOCTYPE svg PUBLIC "-//W3C//DTD SVG 20010904//EN"
 "http://www.w3.org/TR/2001/REC-SVG-20010904/DTD/svg10.dtd">
<svg version="1.0" xmlns="http://www.w3.org/2000/svg"
 width="512.000000pt" height="512.000000pt" viewBox="0 0 512.000000 512.000000"
 preserveAspectRatio="xMidYMid meet">
<metadata>
Created by potrace 1.16, written by Peter Selinger 2001-2019
</metadata>
<g transform="translate(0.000000,512.000000) scale(0.100000,-0.100000)"
fill="#000000" stroke="none">
<path d="M3780 5111 c-103 -34 -203 -120 -245 -214 -28 -61 -50 -176 -41 -218
l6 -29 -266 0 -266 0 -29 -29 c-50 -51 -36 -137 28 -170 14 -7 119 -11 315
-11 l293 0 27 -43 c35 -56 176 -191 261 -251 84 -60 211 -126 240 -126 30 0
154 69 251 138 83 60 250 227 261 262 6 19 14 20 130 20 122 0 124 0 144 -26
21 -27 21 -31 21 -936 l0 -909 -25 -24 -24 -25 -1074 0 -1075 0 -4 98 c-3 84
-8 104 -33 150 -53 97 -138 152 -246 160 -96 7 -164 -16 -232 -78 -71 -65 -97
-124 -104 -241 l-6 -89 -914 0 -914 0 -24 25 -25 24 0 909 c0 905 0 909 21
936 l20 26 940 0 c673 0 947 3 962 11 38 19 57 51 57 97 0 35 -6 49 -29 73
l-30 29 -978 -2 -978 -3 -40 -22 c-54 -28 -119 -100 -136 -149 -12 -32 -14
-208 -14 -999 l0 -960 24 -45 c32 -61 67 -97 126 -128 l50 -27 943 -3 942 -2
0 -221 c0 -207 -1 -221 -17 -214 -142 61 -284 33 -351 -67 l-27 -42 -3 -462
c-3 -520 -1 -538 66 -674 55 -112 178 -234 292 -288 47 -22 101 -43 120 -47
19 -4 63 -16 97 -26 l61 -19 4 -101 c3 -96 4 -102 31 -125 l28 -24 320 0 321
0 29 29 c27 28 29 34 29 113 l0 83 115 34 c63 18 142 48 175 65 166 86 285
236 337 426 27 97 26 557 0 645 -73 238 -262 406 -497 444 -36 6 -165 11 -287
11 l-223 0 0 230 0 230 1103 2 1102 3 50 27 c59 31 94 67 126 128 l24 45 0
960 c0 1066 4 1004 -68 1083 -66 71 -104 85 -234 90 l-112 4 6 28 c8 41 -14
156 -42 217 -32 71 -107 148 -180 186 -57 30 -66 32 -171 32 -96 0 -117 -3
-163 -24 l-52 -25 -47 24 c-38 19 -66 24 -147 26 -55 2 -111 0 -125 -5z m190
-218 c14 -9 40 -29 58 -45 24 -20 43 -28 72 -28 29 0 48 8 72 28 63 54 81 62
138 62 90 0 158 -58 179 -153 22 -94 -22 -197 -130 -312 -64 -67 -233 -195
-258 -195 -26 0 -195 127 -259 194 -76 80 -115 146 -132 220 -19 87 20 182 94
227 40 25 131 26 166 2z m-1496 -2203 c21 -20 21 -29 26 -505 l5 -485 28 -27
27 -28 323 -5 c304 -5 325 -7 379 -28 109 -44 196 -131 240 -240 21 -54 23
-71 23 -297 0 -228 -1 -243 -24 -305 -38 -105 -102 -185 -191 -242 -25 -16
-97 -45 -160 -64 -244 -75 -262 -88 -268 -194 l-4 -70 -169 0 -169 0 0 66 c0
90 -22 124 -103 163 -34 17 -102 41 -152 54 -122 33 -177 61 -246 125 -42 38
-70 76 -96 130 l-38 76 -3 443 -3 443 23 0 c40 -1 104 -37 134 -76 l29 -37 5
-247 c6 -275 9 -291 74 -308 46 -13 79 -5 110 27 l26 27 2 788 3 788 34 30
c29 26 39 30 74 25 22 -3 49 -15 61 -27z"/>
<path d="M2489 4621 c-56 -56 -30 -158 46 -177 67 -17 130 35 130 107 0 89
-113 133 -176 70z"/>
<path d="M1490 3882 c-70 -23 -124 -58 -176 -113 -86 -92 -120 -186 -111 -315
11 -190 139 -339 325 -380 240 -53 466 105 504 354 28 180 -73 359 -247 438
-78 36 -213 43 -295 16z m218 -213 c50 -25 97 -84 113 -142 34 -128 -99 -274
-230 -252 -93 16 -170 95 -179 183 -15 163 151 281 296 211z"/>
<path d="M2128 3871 l-33 -29 -3 -341 c-3 -383 -1 -397 62 -428 30 -14 42 -14
75 -5 64 20 70 38 73 223 l3 163 118 -172 c65 -94 130 -181 144 -192 42 -33
98 -27 139 14 l35 35 -3 351 -3 352 -34 30 c-30 27 -39 30 -79 25 -81 -9 -86
-21 -92 -218 l-5 -170 -125 181 c-75 109 -136 188 -152 196 -43 22 -84 17
-120 -15z"/>
<path d="M3138 3884 c-15 -8 -32 -22 -37 -32 -5 -10 -64 -160 -130 -335 -131
-344 -139 -379 -97 -422 34 -34 87 -42 128 -18 24 14 40 35 58 81 l25 62 115
0 115 0 24 -61 c34 -89 86 -117 156 -84 36 18 55 51 55 95 0 25 -220 624 -249
679 -25 47 -109 65 -163 35z"/>
<path d="M3559 3871 c-23 -23 -29 -38 -29 -71 0 -23 5 -50 10 -61 16 -28 63
-49 115 -49 l45 0 0 -280 0 -280 29 -32 c25 -28 36 -33 76 -33 40 0 51 5 76
33 l29 32 0 280 0 280 45 0 c52 0 99 21 115 49 5 11 10 38 10 61 0 33 -6 48
-29 71 l-29 29 -217 0 -217 0 -29 -29z"/>
<path d="M4223 3893 c-12 -2 -33 -16 -47 -30 l-26 -26 0 -354 c0 -224 4 -361
10 -374 22 -40 60 -49 220 -49 168 0 198 8 225 60 19 37 19 54 0 95 -22 44
-51 55 -155 55 l-90 0 0 50 0 50 63 0 c90 0 134 15 157 53 24 38 25 68 5 107
-22 42 -43 50 -139 50 l-86 0 0 55 0 55 96 0 c52 0 104 5 115 10 23 13 49 61
49 92 0 41 -36 86 -77 97 -36 10 -273 13 -320 4z"/>
<path d="M542 3860 c-13 -12 -27 -33 -33 -47 -5 -13 -9 -166 -9 -339 0 -350 3
-370 61 -400 28 -14 54 -16 165 -12 113 5 139 9 186 31 138 63 218 201 218
379 0 175 -70 310 -195 376 -47 25 -60 27 -210 30 -153 3 -161 2 -183 -18z
m309 -213 c92 -62 90 -282 -3 -350 -16 -12 -49 -22 -83 -25 l-55 -4 0 201 0
201 54 0 c39 0 62 -6 87 -23z"/>
<path d="M462 1659 c-159 -31 -296 -167 -347 -343 -13 -45 -16 -84 -13 -160 8
-166 75 -305 218 -452 160 -165 411 -334 496 -334 90 0 368 188 513 347 203
221 260 471 156 691 -109 231 -390 329 -614 213 l-55 -28 -40 23 c-85 48 -207
64 -314 43z m193 -223 c28 -13 59 -33 70 -46 54 -60 115 -62 180 -4 53 48 86
64 145 71 90 11 187 -39 235 -121 77 -131 44 -288 -93 -451 -66 -79 -204 -194
-305 -255 l-69 -41 -62 37 c-183 112 -341 265 -403 391 -36 72 -38 83 -38 168
0 101 17 145 77 202 75 72 174 91 263 49z"/>
</g>
</svg>
