<?xml version="1.0" standalone="no"?>
<!DOCTYPE svg PUBLIC "-//W3C//DTD SVG 20010904//EN"
 "http://www.w3.org/TR/2001/REC-SVG-20010904/DTD/svg10.dtd">
<svg version="1.0" xmlns="http://www.w3.org/2000/svg"
 width="51.000000pt" height="28.000000pt" viewBox="0 0 51.000000 28.000000"
 preserveAspectRatio="xMidYMid meet">

<g transform="translate(0.000000,28.000000) scale(0.100000,-0.100000)"
fill="#000000" stroke="none">
<path d="M362 268 c-6 -6 -12 -18 -12 -24 0 -7 -15 -15 -32 -17 -32 -4 -32 -4
5 -5 20 -1 37 -6 37 -11 0 -5 11 -16 24 -25 23 -15 26 -14 54 9 49 41 53 35
50 -72 l-3 -98 -106 -3 c-100 -2 -107 -1 -112 18 -7 27 -47 27 -54 0 -5 -19
-12 -21 -97 -18 l-91 3 -3 97 -3 97 103 4 103 3 -110 0 -110 -1 -3 -100 c-4
-125 -3 -125 130 -125 l98 0 0 26 c0 14 4 23 10 19 6 -3 10 -15 10 -26 0 -18
8 -19 111 -19 61 0 119 5 130 10 17 10 19 22 19 111 0 89 -2 101 -18 106 -10
2 -22 14 -27 26 -8 16 -20 23 -50 25 -23 2 -46 -3 -53 -10z m82 -17 c10 -15
-4 -40 -26 -47 -25 -7 -53 18 -45 40 7 17 62 22 71 7z"/>
<path d="M50 119 c0 -38 1 -40 28 -37 47 5 39 78 -9 78 -16 0 -19 -8 -19 -41z
m40 1 c0 -11 -4 -20 -10 -20 -5 0 -10 9 -10 20 0 11 5 20 10 20 6 0 10 -9 10
-20z"/>
<path d="M132 148 c-30 -30 0 -75 43 -64 41 11 29 76 -15 76 -9 0 -21 -5 -28
-12z m48 -28 c0 -13 -7 -20 -20 -20 -19 0 -27 20 -13 33 13 14 33 6 33 -13z"/>
<path d="M210 120 c0 -38 20 -60 20 -22 1 16 1 16 14 0 20 -27 26 -22 26 25
-1 37 -2 40 -14 24 -12 -15 -14 -16 -20 -2 -11 29 -26 15 -26 -25z"/>
<path d="M300 134 c-16 -40 -12 -49 20 -50 34 -1 34 -2 18 43 -14 40 -25 42
-38 7z"/>
<path d="M350 149 c0 -5 5 -9 10 -9 6 0 10 -13 10 -30 0 -16 5 -30 10 -30 6 0
10 14 10 30 0 17 5 30 10 30 6 0 10 -13 10 -30 0 -25 4 -30 25 -30 14 0 25 5
25 10 0 6 -8 10 -17 10 -15 0 -16 2 -3 10 13 9 13 11 0 20 -13 8 -12 10 3 10
9 0 17 4 17 9 0 4 -25 9 -55 9 -30 0 -55 -4 -55 -9z"/>
</g>
</svg>
