<svg xmlns="http://www.w3.org/2000/svg" width="45" height="45" viewBox="0 0 45 45"><g transform="translate(-1229 -516)"><g transform="translate(1229 516)" fill="#fff" stroke="#e2ff9b" stroke-width="1"><circle cx="22.5" cy="22.5" r="22.5" stroke="none"/><circle cx="22.5" cy="22.5" r="22" fill="none"/></g><g transform="translate(1224 489)"><path d="M17.481,55.556a1.481,1.481,0,0,1-1.048-2.529l7.037-7.037a1.483,1.483,0,0,1,2.1,0l2.286,2.286,5.312-5.312H31.556a1.481,1.481,0,1,1,0-2.963h5.185a1.481,1.481,0,0,1,1.481,1.481v5.185a1.481,1.481,0,0,1-2.963,0V45.058L28.9,51.418a1.483,1.483,0,0,1-2.1,0l-2.286-2.286-5.989,5.989a1.472,1.472,0,0,1-1.048.434ZM24.518,46.3a.738.738,0,0,0-.524.217L16.958,53.55A.741.741,0,1,0,18.005,54.6l6.251-6.251a.37.37,0,0,1,.524,0l2.548,2.548a.741.741,0,0,0,1.048,0L35.367,43.9a.37.37,0,0,1,.632.262v2.5a.741.741,0,1,0,1.481,0V41.481a.741.741,0,0,0-.741-.741H31.556a.741.741,0,1,0,0,1.481h2.5a.37.37,0,0,1,.262.632l-6.206,6.206a.37.37,0,0,1-.524,0l-2.548-2.548a.738.738,0,0,0-.524-.217Z" transform="translate(0)" fill="#93c01f" stroke="#93c01f" stroke-width="0.5"/><path d="M36.741,410.963H17.481a1.481,1.481,0,0,1,0-2.963H36.741a1.481,1.481,0,0,1,0,2.963Zm-19.259-2.222a.741.741,0,1,0,0,1.481H36.741a.741.741,0,1,0,0-1.481Z" transform="translate(0 -350.963)" fill="#93c01f" stroke="#93c01f" stroke-width="0.5"/></g></g></svg>