<svg xmlns="http://www.w3.org/2000/svg" width="25.263" height="18" viewBox="0 0 25.263 18"><g transform="translate(0 -33.085)"><path d="M167.62,48.892c0-.029.02-.057.019-.086l-7.709,7.428,7.7,7.191c0-.051-.009-.1-.009-.156Z" transform="translate(-142.376 -13.996)"/><path d="M26.178,126.9l-3.147,3.028a.823.823,0,0,1-1.132.009l-3.139-2.925-7.75,7.47a1.786,1.786,0,0,0,.6.12h21.7a1.785,1.785,0,0,0,.866-.239Z" transform="translate(-9.802 -83.519)"/><path d="M18.107,44.683,29.872,33.35a1.783,1.783,0,0,0-.909-.265H7.268a1.788,1.788,0,0,0-1.138.424Z" transform="translate(-5.457)"/><path d="M0,52.1V66.2a1.79,1.79,0,0,0,.078.467L7.732,59.3Z" transform="translate(0 -16.928)"/></g></svg>