<svg xmlns="http://www.w3.org/2000/svg" width="25" height="25" viewBox="0 0 25 25"><path d="M12.5,0A12.5,12.5,0,1,0,25,12.5,12.493,12.493,0,0,0,12.5,0Zm0,23.047A10.547,10.547,0,1,1,23.047,12.5,10.541,10.541,0,0,1,12.5,23.047Z" fill="#848484"/><g transform="translate(7.937 7.937)"><path d="M171.395,170.014l-2.9-2.9,2.9-2.9a.977.977,0,1,0-1.381-1.381l-2.9,2.9-2.9-2.9a.977.977,0,1,0-1.381,1.381l2.9,2.9-2.9,2.9a.977.977,0,1,0,1.381,1.381l2.9-2.9,2.9,2.9a.977.977,0,1,0,1.381-1.381Z" transform="translate(-162.555 -162.556)" fill="#848484"/></g></svg>