<svg xmlns="http://www.w3.org/2000/svg" width="25" height="25" viewBox="0 0 25 25"><path d="M291.169,508.668q-.156.025-.314.047Q291.013,508.693,291.169,508.668Zm0,0" transform="translate(-276.653 -483.831)" fill="#0453ae"/><path d="M299.489,507.793l-.149.026Zm0,0" transform="translate(-284.723 -482.998)" fill="#0453ae"/><path d="M277.977,510.34q-.183.021-.368.036Q277.794,510.361,277.977,510.34Zm0,0" transform="translate(-264.055 -485.421)" fill="#0453ae"/><path d="M286.622,509.738l-.176.022Zm0,0" transform="translate(-272.459 -484.848)" fill="#0453ae"/><path d="M306.8,506.41l-.132.028Zm0,0" transform="translate(-291.69 -481.683)" fill="#0453ae"/><path d="M324.591,502.113l-.106.03Zm0,0" transform="translate(-308.64 -477.596)" fill="#0453ae"/><path d="M319.175,503.543l-.116.03Zm0,0" transform="translate(-303.48 -478.956)" fill="#0453ae"/><path d="M312.19,505.254l-.123.028Zm0,0" transform="translate(-296.829 -480.583)" fill="#0453ae"/><path d="M273.678,511.09l-.2.015Zm0,0" transform="translate(-260.127 -486.134)" fill="#0453ae"/><path d="M25,12.5A12.5,12.5,0,1,0,12.5,25l.22,0V15.266H10.034v-3.13H12.72v-2.3a3.759,3.759,0,0,1,4.013-4.125,22.107,22.107,0,0,1,2.408.123V8.623H17.5c-1.3,0-1.547.616-1.547,1.52v1.993h3.1l-.4,3.13h-2.7v9.251A12.507,12.507,0,0,0,25,12.5Zm0,0" fill="#0453ae"/><path d="M265.282,511.43q-.2.013-.392.019Q265.087,511.443,265.282,511.43Zm0,0" transform="translate(-251.956 -486.458)" fill="#0453ae"/><path d="M260.712,511.836l-.208.005Zm0,0" transform="translate(-247.784 -486.844)" fill="#0453ae"/></svg>