<svg xmlns="http://www.w3.org/2000/svg" width="35.004" height="35" viewBox="0 0 35.004 35"><g transform="translate(0 -0.032)"><path d="M29.875,5.157A17.384,17.384,0,0,0,17.605.033h-.054A17.5,17.5,0,1,0,29.875,5.157ZM18.526,32.068V25.8a15.384,15.384,0,0,1,4.605,1.023A19.211,19.211,0,0,1,18.526,32.068Zm0-8.323V18.557h7.185A18.1,18.1,0,0,1,24.09,25,17.43,17.43,0,0,0,18.526,23.745Zm0-7.239V11.319a17.43,17.43,0,0,0,5.564-1.25,18.1,18.1,0,0,1,1.621,6.438Zm0-7.242V3a19.211,19.211,0,0,1,4.605,5.245A15.384,15.384,0,0,1,18.526,9.264ZM21.1,2.508A15.414,15.414,0,0,1,27.417,5.7a15.441,15.441,0,0,1-2.425,1.67A21.288,21.288,0,0,0,21.1,2.508Zm-4.63.6V9.264a15.389,15.389,0,0,1-4.494-.98A19.214,19.214,0,0,1,16.475,3.1ZM10.112,7.422A15.442,15.442,0,0,1,7.583,5.7a15.411,15.411,0,0,1,6.5-3.231A21.287,21.287,0,0,0,10.112,7.422Zm6.363,3.9v5.188H9.427a18.092,18.092,0,0,1,1.6-6.392,17.433,17.433,0,0,0,5.448,1.2Zm0,7.238v5.188a17.432,17.432,0,0,0-5.448,1.2,18.092,18.092,0,0,1-1.6-6.392Zm0,7.242v6.159a19.214,19.214,0,0,1-4.494-5.18A15.389,15.389,0,0,1,16.475,25.8Zm-2.4,6.8a15.411,15.411,0,0,1-6.5-3.231,15.442,15.442,0,0,1,2.529-1.727A21.287,21.287,0,0,0,14.079,32.6Zm10.913-4.9a15.438,15.438,0,0,1,2.425,1.67,15.414,15.414,0,0,1-6.312,3.187A21.291,21.291,0,0,0,24.992,27.7Zm.947-1.821a20.141,20.141,0,0,0,1.826-7.32h5.15a15.392,15.392,0,0,1-4.01,9.386A17.507,17.507,0,0,0,25.939,25.877Zm6.976-9.371h-5.15a20.14,20.14,0,0,0-1.826-7.32A17.507,17.507,0,0,0,28.9,7.121,15.392,15.392,0,0,1,32.915,16.506ZM6.1,7.121A17.5,17.5,0,0,0,9.172,9.245a20.135,20.135,0,0,0-1.8,7.261H2.086A15.392,15.392,0,0,1,6.1,7.121ZM2.086,18.557H7.373a20.135,20.135,0,0,0,1.8,7.261A17.5,17.5,0,0,0,6.1,27.943a15.392,15.392,0,0,1-4.01-9.386Z" transform="translate(0 0)" fill="#93c01f"/></g></svg>