<svg xmlns="http://www.w3.org/2000/svg" width="60" height="60" viewBox="0 0 60 60"><g transform="translate(0)"><path d="M219.011,338.5h-9.3a.879.879,0,1,0,0,1.758h9.3a.879.879,0,0,0,0-1.758Z" transform="translate(-184.362 -298.83)" fill="#93c01f"/><path d="M219.011,368.33h-9.3a.879.879,0,1,0,0,1.758h9.3a.879.879,0,1,0,0-1.758Z" transform="translate(-184.362 -325.166)" fill="#93c01f"/><path d="M57.949,52.948H54.726V49.939a2.288,2.288,0,0,0-2.285-2.285H50.8V20.8A20.824,20.824,0,0,0,30,0h0A20.824,20.824,0,0,0,9.2,20.8V47.654H7.559a2.288,2.288,0,0,0-2.285,2.285v3.009H2.052A2.054,2.054,0,0,0,0,55v2.949A2.054,2.054,0,0,0,2.052,60h25.9a.879.879,0,1,0,0-1.758H2.052a.294.294,0,0,1-.294-.294V55a.294.294,0,0,1,.294-.294h55.9a.294.294,0,0,1,.294.294v2.949a.294.294,0,0,1-.294.294h-25.9a.879.879,0,1,0,0,1.758h25.9A2.054,2.054,0,0,0,60,57.949V55a2.054,2.054,0,0,0-2.051-2.051ZM10.957,20.8a19.043,19.043,0,0,1,38.085,0V47.654H47.285V20.8a17.285,17.285,0,0,0-34.57,0V47.654H10.957Zm34.57,26.853H14.473V20.8a15.527,15.527,0,1,1,31.054,0Zm-38.5,5.294V49.939a.534.534,0,0,1,.527-.527H52.441a.534.534,0,0,1,.527.527v3.009Z" transform="translate(0)" fill="#93c01f"/><path d="M188.391,96.49h-5.379V91.111a1.783,1.783,0,0,0-1.781-1.781h-2.269a1.783,1.783,0,0,0-1.781,1.781V96.49H171.8a1.783,1.783,0,0,0-1.781,1.781v2.269a1.783,1.783,0,0,0,1.781,1.781h5.379v11.985a1.783,1.783,0,0,0,1.781,1.781h2.269a1.783,1.783,0,0,0,1.781-1.781v-4.88a.879.879,0,1,0-1.758,0v4.88a.023.023,0,0,1-.023.023h-2.269a.023.023,0,0,1-.023-.023v-12.49a1.254,1.254,0,0,0-1.252-1.253H171.8a.023.023,0,0,1-.023-.023V98.271a.023.023,0,0,1,.023-.023h5.885A1.254,1.254,0,0,0,178.938,97V91.111a.023.023,0,0,1,.023-.023h2.269a.023.023,0,0,1,.023.023V97a1.254,1.254,0,0,0,1.252,1.252h5.884a.023.023,0,0,1,.023.023v2.269a.023.023,0,0,1-.023.023h-5.884a1.254,1.254,0,0,0-1.252,1.253v3.509a.879.879,0,1,0,1.758,0v-3h5.379a1.783,1.783,0,0,0,1.781-1.781V98.271a1.783,1.783,0,0,0-1.781-1.781Z" transform="translate(-150.096 -78.862)" fill="#93c01f"/></g></svg>