<svg xmlns="http://www.w3.org/2000/svg" width="39.53" height="40" viewBox="0 0 39.53 40"><g transform="translate(0)"><path d="M33.229,24.944a16.109,16.109,0,1,0-26.927,0L0,34.134l7.21-1.344L8.555,40,14.5,31.333a16.114,16.114,0,0,0,10.535,0L30.976,40l1.344-7.21,7.21,1.344Zm-23.4,9.029L9.1,30.04l-3.933.734L7.817,26.9a16.214,16.214,0,0,0,4.478,3.475ZM6.013,16.109A13.752,13.752,0,1,1,19.765,29.861,13.767,13.767,0,0,1,6.013,16.109ZM30.434,30.04,29.7,33.973l-2.465-3.595A16.214,16.214,0,0,0,31.714,26.9l2.654,3.87Zm0,0" fill="#9bcb20"/><path d="M151.335,138.486l-3.833-3.833-1.667,1.667,5.5,5.5,11.244-11.243-1.667-1.667Zm0,0" transform="translate(-134.442 -118.839)" fill="#9bcb20"/></g></svg>