<svg xmlns="http://www.w3.org/2000/svg" width="59.718" height="60" viewBox="0 0 59.718 60"><g transform="translate(-2.24 -2.199)"><path d="M38.043,13.013h-3.01V10a1,1,0,0,0-1-1H30.017a1,1,0,0,0-1,1v3.01H26a1,1,0,0,0-1,1V18.03a1,1,0,0,0,1,1h3.01v3.01a1,1,0,0,0,1,1H34.03a1,1,0,0,0,1-1v-3.01h3.01a1,1,0,0,0,1-1V14.017A1,1,0,0,0,38.043,13.013Zm-1,4.013H34.03a1,1,0,0,0-1,1v3.01H31.02V18.03a1,1,0,0,0-1-1h-3.01V15.02h3.01a1,1,0,0,0,1-1v-3.01h2.007v3.01a1,1,0,0,0,1,1h3.01Z" transform="translate(0.076 0.023)" fill="#93c01f"/><path d="M59.819,18.375a4.6,4.6,0,0,0,.03-.532,4.033,4.033,0,0,0-3.191-3.923,4.085,4.085,0,0,0-4.716,2.98L47.528,29.6a1.637,1.637,0,0,0-.191.09l-8.869,5.2A9.047,9.047,0,0,0,34,42.675v9.451a1,1,0,0,0-1,1v8.027a1,1,0,0,0,1,1H48.05a1,1,0,0,0,1-1V53.13a1,1,0,0,0-1-1V49.919a3.049,3.049,0,0,1,1-2.247l6.782-6.03a4.947,4.947,0,0,0,1.525-2.458L61.715,22.9a3.968,3.968,0,0,0,.14-1.043,4.032,4.032,0,0,0-2.037-3.482Zm-5.96-.883a2.12,2.12,0,0,1,2.388-1.605,2.007,2.007,0,0,1,1.6,1.956v.02a4.114,4.114,0,0,0-3.9,3.07l-2.8,8.639a4.214,4.214,0,0,0-1.344-.381ZM47.047,60.153H35.007v-6.02h12.04ZM59.779,22.378,55.414,38.672a2.991,2.991,0,0,1-.9,1.465l-6.792,6.03a5.073,5.073,0,0,0-1.676,3.752v2.207H36.01V42.675a7.075,7.075,0,0,1,3.471-6.06l8.859-5.187a2.007,2.007,0,0,1,2.749.732,2.067,2.067,0,0,1,.2,1.525,2.007,2.007,0,0,1-.943,1.214L44.6,38.221a1,1,0,0,0,1,1.736l5.749-3.321A3.961,3.961,0,0,0,53.227,34.2a4.02,4.02,0,0,0-.4-3.04l-.06-.09,3.1-9.562A2.12,2.12,0,0,1,58.254,19.9a2.007,2.007,0,0,1,1.6,1.956A1.728,1.728,0,0,1,59.779,22.378Z" transform="translate(0.102 0.039)" fill="#93c01f"/><path d="M30.092,52.127V42.675a9.047,9.047,0,0,0-4.465-7.786l-8.869-5.207c-.06-.03-.13-.05-.191-.08L12.183,16.97a4.121,4.121,0,0,0-4.746-3.05,4.033,4.033,0,0,0-3.191,3.923,4.593,4.593,0,0,0,.03.532A4.032,4.032,0,0,0,2.24,21.857,4.436,4.436,0,0,0,2.37,22.9L6.735,39.174A4.932,4.932,0,0,0,8.26,41.642l6.772,6.03a3.022,3.022,0,0,1,1.013,2.247v2.207a1,1,0,0,0-1,1v8.027a1,1,0,0,0,1,1H30.092a1,1,0,0,0,1-1V53.13A1,1,0,0,0,30.092,52.127ZM6.253,17.843a2.007,2.007,0,0,1,1.585-1.956,2.168,2.168,0,0,1,2.428,1.676L14.3,29.191a4.214,4.214,0,0,0-1.344.381l-2.779-8.588a4.163,4.163,0,0,0-3.923-3.12ZM16.367,46.167l-6.782-6.03a2.975,2.975,0,0,1-.9-1.475L4.307,22.378a2.128,2.128,0,0,1-.06-.522A2.007,2.007,0,0,1,5.832,19.9,2.151,2.151,0,0,1,8.25,21.556l3.08,9.511-.06.09a4.02,4.02,0,0,0-.4,3.04,3.961,3.961,0,0,0,1.876,2.438l5.749,3.321a1,1,0,0,0,1-1.736L13.748,34.9a2.007,2.007,0,0,1-.943-1.214,2.067,2.067,0,0,1,.2-1.525,2.007,2.007,0,0,1,2.739-.742l8.869,5.2a7.075,7.075,0,0,1,3.471,6.06v9.451H18.052V49.919A5.047,5.047,0,0,0,16.367,46.167ZM29.089,60.153H17.049v-6.02h12.04Z" transform="translate(0 0.039)" fill="#93c01f"/><path d="M46.251,5.142a10.027,10.027,0,0,0-14.193,0h0A10.032,10.032,0,1,0,17.864,19.324L31.348,32.808a1,1,0,0,0,1.419,0L46.252,19.324a10.039,10.039,0,0,0,0-14.182ZM32.057,30.68,19.281,17.905a8.027,8.027,0,0,1,5.682-13.7,7.942,7.942,0,0,1,5.672,2.355l.712.712a1,1,0,0,0,1.419,0l.714-.714A8.024,8.024,0,0,1,44.832,17.9Z" transform="translate(0.042)" fill="#93c01f"/></g></svg>