<svg xmlns="http://www.w3.org/2000/svg" width="15.226" height="18" viewBox="0 0 15.226 18"><g transform="translate(-39.451)"><g transform="translate(39.451)"><g transform="translate(0)"><path d="M52.447,2.23a7.613,7.613,0,0,0-13,5.383c0,4.114,3.89,7.535,5.979,9.374.29.255.541.476.741.663a1.312,1.312,0,0,0,1.786,0c.2-.187.451-.407.741-.663,2.09-1.838,5.979-5.26,5.979-9.374A7.563,7.563,0,0,0,52.447,2.23ZM48,16.195c-.3.261-.553.486-.764.684a.254.254,0,0,1-.346,0c-.211-.2-.468-.423-.764-.684-1.965-1.728-5.621-4.945-5.621-8.582a6.559,6.559,0,0,1,13.117,0C53.623,11.25,49.966,14.467,48,16.195Z" transform="translate(-39.451 0)" fill="#93c01f"/></g></g><g transform="translate(43.709 3.97)"><g transform="translate(0)"><path d="M163.925,112.938a3.355,3.355,0,1,0,3.355,3.355A3.359,3.359,0,0,0,163.925,112.938Zm0,5.655a2.3,2.3,0,1,1,2.3-2.3A2.3,2.3,0,0,1,163.925,118.593Z" transform="translate(-160.57 -112.938)" fill="#93c01f"/></g></g></g></svg>