<svg xmlns="http://www.w3.org/2000/svg" width="60" height="60" viewBox="0 0 60 60"><g transform="translate(0.001)"><path d="M65.935,448.968a.968.968,0,1,1-.968-.968A.968.968,0,0,1,65.935,448.968Zm0,0" transform="translate(-56.259 -393.806)" fill="#93c01f"/><path d="M305.935,448.968a.968.968,0,1,1-.968-.968A.968.968,0,0,1,305.935,448.968Zm0,0" transform="translate(-267.226 -393.806)" fill="#93c01f"/><path d="M241.935,448.968a.968.968,0,1,1-.968-.968A.968.968,0,0,1,241.935,448.968Zm0,0" transform="translate(-210.968 -393.806)" fill="#93c01f"/><path d="M41.677,344H35.47L32,347.47v4.272h9.677Zm-1.935,5.806H33.935v-1.535l2.336-2.336h3.47Zm0,0" transform="translate(-28.13 -302.387)" fill="#93c01f"/><path d="M60,11.613V6.481L55.679,0H12.062L7.741,6.481v5.132H9.677V37.742H5.405L0,43.148V54.194a2.907,2.907,0,0,0,2.9,2.9H4.281a4.829,4.829,0,0,0,8.857,0H25.571a4.814,4.814,0,0,0,8.3.938,4.814,4.814,0,0,0,8.3-.938h1.378a2.907,2.907,0,0,0,2.9-2.9V52.08a2.863,2.863,0,0,0,.968.178H57.1a2.907,2.907,0,0,0,2.9-2.9V39.677a2.9,2.9,0,0,0-1.935-2.725V11.613ZM13.1,1.935H54.643l2.581,3.871h-1.1V7.742h1.935V9.677H9.677V7.742h1.935V5.806h-1.1ZM6.207,39.677h9.277V51.29h-3.9a4.75,4.75,0,0,0-5.747,0h-3.9V43.949ZM23.225,15.484H27.1v1.935H23.225Zm5.806,3.871V15.484h5.806v3.871H30.967V32.9H29.032V29.032H21.29V32.9H15.483V15.484H21.29v3.871ZM40.645,21.29h3.871v1.935H40.645Zm5.806,3.871V21.29h5.806V36.774H47.419a2.863,2.863,0,0,0-.968.178V32.9H32.9V21.29h5.806v3.871ZM50.322,38.71h3.871v1.935H50.322ZM40.615,51.29a4.777,4.777,0,0,0-6.744,1,4.777,4.777,0,0,0-6.744-1H17.419V34.839h27.1V51.29ZM27.1,32.9H23.225V30.968H27.1ZM2.9,55.161a.97.97,0,0,1-.968-.968v-.968H4.281a4.79,4.79,0,0,0-.41,1.935Zm5.806,2.9a2.9,2.9,0,1,1,2.9-2.9A2.907,2.907,0,0,1,8.709,58.065Zm4.429-4.839h2.346v1.935H13.548a4.79,4.79,0,0,0-.41-1.935Zm4.281,1.935V53.226h8.152a4.79,4.79,0,0,0-.41,1.935ZM30,58.065a2.9,2.9,0,1,1,2.9-2.9A2.907,2.907,0,0,1,30,58.065Zm7.742,0a2.9,2.9,0,1,1,2.9-2.9A2.907,2.907,0,0,1,37.741,58.065Zm5.806-2.9H42.58a4.79,4.79,0,0,0-.41-1.935h2.346v.968a.97.97,0,0,1-.968.968Zm10.645-4.839H50.322V48.387h3.871Zm3.871-.968a.97.97,0,0,1-.968.968h-.968V46.452H48.387v3.871h-.968a.97.97,0,0,1-.968-.968V39.677a.97.97,0,0,1,.968-.968h.968v3.871h7.742V38.71H57.1a.97.97,0,0,1,.968.968ZM56.129,36.774H54.193V19.355H36.774V13.548H13.548v21.29h1.935v2.9H11.612V11.613H56.129Zm0,0" fill="#93c01f"/><path d="M200,304v12.581h13.548V304Zm11.613,10.645h-9.677v-8.71h9.677Zm0,0" transform="translate(-175.807 -267.226)" fill="#93c01f"/><path d="M112,48h40.645v1.935H112Zm0,0" transform="translate(-98.452 -42.194)" fill="#93c01f"/></g></svg>