<svg xmlns="http://www.w3.org/2000/svg" width="60" height="60" viewBox="0 0 60 60"><g transform="translate(0 -0.001)"><g transform="translate(0 0.001)"><g transform="translate(0 0)"><path d="M52.4,29.3a1.172,1.172,0,0,0,1.529-.112l5.729-5.741a1.172,1.172,0,0,0-.13-1.768l-5.856-4.356V5.626A1.172,1.172,0,0,0,52.5,4.454H45a1.172,1.172,0,0,0-1.172,1.172V10L30.7.233a1.172,1.172,0,0,0-1.4,0L19.039,7.866a1.172,1.172,0,0,0,1.4,1.881L30,2.634,57.041,22.748l-4.056,4.064L30.7,10.235a1.172,1.172,0,0,0-1.4,0L7.014,26.812,2.959,22.748l10.509-7.817a1.172,1.172,0,1,0-1.4-1.881L.472,21.676a1.172,1.172,0,0,0-.13,1.768l5.729,5.741A1.172,1.172,0,0,0,7.6,29.3l.837-.623v9.3H2.344A2.346,2.346,0,0,0,0,40.314V57.657A2.346,2.346,0,0,0,2.344,60h7.969a2.345,2.345,0,0,0,2.314-1.986l5.45,1.92a1.171,1.171,0,0,0,.389.067H35.2a8.2,8.2,0,0,0,5.294-1.939L53.169,47.334a4.753,4.753,0,0,0-1.606-8.15V28.675Zm-1.072-13.72-5.156-3.835V6.8h5.156ZM10.312,57.657H2.344V40.314H5.156v8.672a1.172,1.172,0,0,0,2.344,0V40.314h2.813v16c0,.027,0,.054,0,.081v1.259Zm41.544-15.6a2.41,2.41,0,0,1-.2,3.488L38.978,56.273a5.857,5.857,0,0,1-3.78,1.385H18.666l-6.01-2.117V42.423h8.6a5.832,5.832,0,0,1,3.245.983l7.84,5.226a1.529,1.529,0,0,1-1.507,2.651l-6.707-3.2a1.172,1.172,0,1,0-1.01,2.115l6.707,3.2a3.872,3.872,0,0,0,3.817-6.716L25.8,41.455a8.169,8.169,0,0,0-4.545-1.376H12.644a2.349,2.349,0,0,0-1.863-2.062V26.931L30,12.635l19.219,14.3v12.1h0a4.734,4.734,0,0,0-2.18,1.032L37.71,47.908A1.172,1.172,0,1,0,39.219,49.7l9.329-7.841A2.41,2.41,0,0,1,51.856,42.057Z" transform="translate(0 -0.001)" fill="#93c01f"/></g></g><g transform="translate(15.185 10.149)"><path d="M131.58,86.944a1.171,1.171,0,1,0,.343.829A1.18,1.18,0,0,0,131.58,86.944Z" transform="translate(-129.58 -86.601)" fill="#93c01f"/></g><g transform="translate(24.935 22.495)"><path d="M222.323,192.1a1.172,1.172,0,0,0-1.6.444l-7.8,13.814a1.172,1.172,0,1,0,2.041,1.152l7.8-13.814A1.172,1.172,0,0,0,222.323,192.1Z" transform="translate(-212.776 -191.951)" fill="#93c01f"/></g><g transform="translate(31.177 31.513)"><path d="M270.032,268.907a3.984,3.984,0,1,0,3.984,3.984A3.989,3.989,0,0,0,270.032,268.907Zm0,5.625a1.641,1.641,0,1,1,1.641-1.641A1.642,1.642,0,0,1,270.032,274.532Z" transform="translate(-266.048 -268.907)" fill="#93c01f"/></g><g transform="translate(20.865 20.159)"><path d="M182.037,172.012A3.984,3.984,0,1,0,186.022,176,3.989,3.989,0,0,0,182.037,172.012Zm0,5.625A1.641,1.641,0,1,1,183.678,176,1.642,1.642,0,0,1,182.037,177.637Z" transform="translate(-178.053 -172.012)" fill="#93c01f"/></g><g transform="translate(5.215 52.442)"><path d="M46.5,447.844a1.171,1.171,0,1,0,.343.829A1.18,1.18,0,0,0,46.5,447.844Z" transform="translate(-44.5 -447.501)" fill="#93c01f"/></g></g></svg>