<svg xmlns="http://www.w3.org/2000/svg" width="90.469" height="60" viewBox="0 0 90.469 60"><g transform="translate(0 -86.218)"><path d="M65.561,146.218A44.283,44.283,0,0,1,51.337,143.8a1.325,1.325,0,0,1,.856-2.509,40.818,40.818,0,0,0,16.326,2.144,27.461,27.461,0,0,0,13.7-4.616,8.588,8.588,0,0,0,2.346-11.377l-6.5-10.828a1.325,1.325,0,1,1,2.273-1.364l2.164,3.606,1.251.62a2.451,2.451,0,0,0,1.929.115,2.23,2.23,0,0,0,1.28-1.041,12.668,12.668,0,0,0,.858-5.281c0-3.548-1.725-4.832-3.339-4.851h-.035a2.74,2.74,0,0,0-2.623,1.685l1.468.715a1.325,1.325,0,0,1-1.161,2.383l-5.987-2.917a4.116,4.116,0,0,0-5.525,5.458l5.864,12.416a1.325,1.325,0,1,1-2.4,1.132L70.7,122.129a21.353,21.353,0,0,0-9.513-2.082l-12.739,7.588a1.325,1.325,0,0,1-1.356-2.277l13.056-7.777a4.07,4.07,0,0,0-2.485-7.546l-2.1.208a1.325,1.325,0,0,1-1.37-.849,3.981,3.981,0,0,0-4.745-2.332,12.6,12.6,0,0,1-.784,7.568l4.835-2.236a1.325,1.325,0,1,1,1.113,2.406l-10.792,4.992a7.224,7.224,0,0,0-2.978,2.548,21.394,21.394,0,0,0-1.64,3.474,1.325,1.325,0,0,1-2.485-.923,24.24,24.24,0,0,1,1.919-4.022,9.871,9.871,0,0,1,4.07-3.483l1.964-.908c2.551-3.793,2.822-7.112,1.958-9.676a10,10,0,0,1-5.162,1.663,1.325,1.325,0,0,1-.052-2.65,7.218,7.218,0,0,0,3.963-1.384,8.659,8.659,0,0,0-1.66-1.674,1.326,1.326,0,0,1-.51-1.216,2.646,2.646,0,0,0-.59-2.368,2.755,2.755,0,0,0-2.5-.289,1.326,1.326,0,0,1-1.474-.6,19.49,19.49,0,0,0-2.011-2.765,1.325,1.325,0,1,1,2-1.741,22.161,22.161,0,0,1,1.787,2.35,4.586,4.586,0,0,1,5.479,4.985,11.2,11.2,0,0,1,2.667,3.443,6.652,6.652,0,0,1,7.656,2.958L57.4,107.4a6.729,6.729,0,0,1,6.44,10.139,24.779,24.779,0,0,1,5.175,1.028l-.8-1.692A6.766,6.766,0,0,1,77.3,107.9l2.126,1.036a4.936,4.936,0,0,1,1.4-1.88,5.623,5.623,0,0,1,3.685-1.289c2.966.035,5.958,2.368,5.958,7.5a15.122,15.122,0,0,1-1.111,6.412,4.886,4.886,0,0,1-2.805,2.413,5.168,5.168,0,0,1-1.937.286l2.219,3.7a11.251,11.251,0,0,1-3.085,14.9c-4.877,3.461-11.287,5.237-18.189,5.237Zm-18.655-4.332a1.32,1.32,0,0,1-.572-.131A42.846,42.846,0,0,1,31.64,130.267H22.025A22.024,22.024,0,1,1,34.732,90.252,1.325,1.325,0,0,1,33.2,92.416a19.375,19.375,0,1,0-11.177,35.2H32.278a1.325,1.325,0,0,1,1.042.507A40.074,40.074,0,0,0,47.48,139.366a1.325,1.325,0,0,1-.574,2.52ZM25.351,122.845a6.673,6.673,0,0,1-6.665-6.665,5.513,5.513,0,0,1,5.507-5.507,1.325,1.325,0,1,1,0,2.65,2.86,2.86,0,0,0-2.856,2.856,4.019,4.019,0,0,0,4.015,4.015,2.86,2.86,0,0,0,2.856-2.856,1.325,1.325,0,0,1,2.65,0A5.513,5.513,0,0,1,25.351,122.845Zm7.472-16.605a4.272,4.272,0,0,1-.8-.076,1.325,1.325,0,0,1,.5-2.6,1.571,1.571,0,0,0,1.836-1.249,1.325,1.325,0,1,1,2.6.5,4.224,4.224,0,0,1-4.138,3.433Z" transform="translate(0 0)" fill="#93c01f"/></g></svg>