<svg xmlns="http://www.w3.org/2000/svg" width="28.206" height="45" viewBox="0 0 28.206 45"><g transform="translate(-95.538)"><g transform="translate(95.538 0)"><path d="M123.657,39.077a4.5,4.5,0,0,0-.344-1.294l-.006-.013a2.3,2.3,0,0,0-.7-.907,1.782,1.782,0,0,0-1.075-.351h-6.147V1.91A1.743,1.743,0,0,0,115.1.924a1.735,1.735,0,0,0-1.013-.672,6.37,6.37,0,0,0-1.372-.2c-.5-.033-1.146-.047-2.1-.047-.7,0-1.258,0-1.7.012-.463.012-.844.037-1.128.075a4.314,4.314,0,0,0-.826.174l-.018.006a2.29,2.29,0,0,0-.621.325L97.129,6.543,97.1,6.56a4.7,4.7,0,0,0-.754.61,2.337,2.337,0,0,0-.56.92,3.95,3.95,0,0,0-.217,1.1c-.024.359-.036.821-.036,1.373a15.067,15.067,0,0,0,.111,2.088,2.6,2.6,0,0,0,.6,1.449l.019.019a1.7,1.7,0,0,0,1.512.453l.034-.005a6.009,6.009,0,0,0,1.459-.525l.046-.024,5.6-3.088v8.528a.879.879,0,1,0,1.758,0V9.445a.879.879,0,0,0-1.3-.77L98.5,12.471a4.431,4.431,0,0,1-.971.367l-.026,0a1.675,1.675,0,0,1-.112-.44,13.666,13.666,0,0,1-.093-1.833c0-.513.011-.936.032-1.256a2.166,2.166,0,0,1,.114-.618c.006-.015.011-.031.016-.046A.575.575,0,0,1,97.6,8.4l.023-.024a3.435,3.435,0,0,1,.469-.367l9.212-5.964q.037-.024.071-.051a.537.537,0,0,1,.146-.071,2.749,2.749,0,0,1,.484-.1c.229-.03.549-.05.952-.061.419-.011.964-.011,1.654-.011.911,0,1.523.013,1.983.043a4.689,4.689,0,0,1,.98.134l.01,0,.036.011V37.39a.879.879,0,0,0,.879.879h7.046l.016.01a.708.708,0,0,1,.154.242,2.853,2.853,0,0,1,.2.782,12.188,12.188,0,0,1,.072,1.5,9.51,9.51,0,0,1-.091,1.438,2.81,2.81,0,0,1-.2.775l-.02.043a.6.6,0,0,1-.1.172l-.01.007a.027.027,0,0,1-.022.006H97.8l-.009-.006a.871.871,0,0,1-.126-.208l-.007-.014a2.813,2.813,0,0,1-.2-.775,9.5,9.5,0,0,1-.091-1.438,12.185,12.185,0,0,1,.072-1.494,2.867,2.867,0,0,1,.2-.785.919.919,0,0,1,.159-.253H105.8a.879.879,0,0,0,.879-.879V27.373a.879.879,0,0,0-1.758,0v9.138H97.777a1.662,1.662,0,0,0-1.077.379,2.441,2.441,0,0,0-.657.88l-.006.013a4.5,4.5,0,0,0-.345,1.3,13.662,13.662,0,0,0-.086,1.721,11.064,11.064,0,0,0,.113,1.712,4.434,4.434,0,0,0,.362,1.28,2.179,2.179,0,0,0,.692.877,1.733,1.733,0,0,0,1,.33H121.54a1.784,1.784,0,0,0,1.038-.33,2.123,2.123,0,0,0,.7-.891,4.47,4.47,0,0,0,.355-1.266,11.077,11.077,0,0,0,.113-1.712A13.69,13.69,0,0,0,123.657,39.077Z" transform="translate(-95.538 0)" fill="#93c01f"/><path d="M203.175,258.2a.879.879,0,1,0,0-1.758h0a.879.879,0,0,0,0,1.758Z" transform="translate(-192.913 -233.904)" fill="#93c01f"/></g></g></svg>