<svg xmlns="http://www.w3.org/2000/svg" width="60" height="60" viewBox="0 0 60 60"><g transform="translate(-1 -1)"><path d="M16.839,22.548V20.613h2.9v-2.9a2.907,2.907,0,0,0-2.9-2.9H14.9a.968.968,0,0,1-.968-.968v-.968h2.9a.968.968,0,0,1,.968.968h1.935a2.907,2.907,0,0,0-2.9-2.9V9H14.9v1.935H12v2.9a2.907,2.907,0,0,0,2.9,2.9h1.935a.968.968,0,0,1,.968.968v.968H14.9a.968.968,0,0,1-.968-.968H12a2.907,2.907,0,0,0,2.9,2.9v1.935Z" transform="translate(-0.355 -0.258)" fill="#93c01f"/><path d="M26.29,15.645A10.645,10.645,0,1,0,15.645,26.29,10.658,10.658,0,0,0,26.29,15.645Zm-19.355,0a8.71,8.71,0,1,1,8.71,8.71A8.719,8.719,0,0,1,6.935,15.645Z" transform="translate(-0.129 -0.129)" fill="#93c01f"/><path d="M56.161,22.29H47.853l11.46-11.461a5.758,5.758,0,1,0-8.143-8.143l-19.6,19.6H28.345a14.514,14.514,0,1,0-19.6,6.055V48.419a4.844,4.844,0,0,0,4.839,4.839h9.338l9.02,7.216a2.4,2.4,0,0,0,3.9-1.875V53.258H56.161A4.844,4.844,0,0,0,61,48.419V27.129a4.844,4.844,0,0,0-4.839-4.839ZM46.885,9.71l1.535-1.535,5.406,5.406L52.29,15.115Zm.65,3.387L32.452,28.18l-2.018-2.019L45.516,11.078ZM29.377,27.842l4.781,4.781-7.112,3.161a.642.642,0,0,1-.885-.573.617.617,0,0,1,.055-.256Zm2.591,7.873L36.4,33.746l5.651-5.65H55.194V47.452H31.968Zm3.871-4.149L33.82,29.548,48.9,14.465l2.019,2.019Zm16.7-27.511a3.822,3.822,0,1,1,5.406,5.406l-2.751,2.751L49.788,6.806ZM2.935,15.516A12.581,12.581,0,1,1,15.516,28.1,12.6,12.6,0,0,1,2.935,15.516Zm56.129,32.9a2.907,2.907,0,0,1-2.9,2.9H33.9V58.6a.481.481,0,0,1-.755.363L23.6,51.323H13.581a2.907,2.907,0,0,1-2.9-2.9V29.185A14.407,14.407,0,0,0,27.1,24.226h2.53L28.38,25.477l-.128.127-3.806,8.565a2.564,2.564,0,0,0,3.385,3.384l2.2-.977V47.452a1.937,1.937,0,0,0,1.935,1.935H55.194a1.937,1.937,0,0,0,1.935-1.935V28.1a1.937,1.937,0,0,0-1.935-1.935H43.982l1.935-1.935H56.161a2.907,2.907,0,0,1,2.9,2.9Z" fill="#93c01f"/><path d="M27,49h1.935v1.935H27Z" transform="translate(-0.839 -1.548)" fill="#93c01f"/><path d="M13,49H24.613v1.935H13Z" transform="translate(-0.387 -1.548)" fill="#93c01f"/><path d="M13,45H28.484v1.935H13Z" transform="translate(-0.387 -1.419)" fill="#93c01f"/><path d="M13,41H28.484v1.935H13Z" transform="translate(-0.387 -1.29)" fill="#93c01f"/><path d="M13,37h9.677v1.935H13Z" transform="translate(-0.387 -1.161)" fill="#93c01f"/><path d="M13,33h9.677v1.935H13Z" transform="translate(-0.387 -1.032)" fill="#93c01f"/><path d="M44.742,31a7.742,7.742,0,1,0,7.742,7.742A7.751,7.751,0,0,0,44.742,31Zm5.719,6.774H45.71V33.023A5.814,5.814,0,0,1,50.461,37.774Zm-5.719,6.774a5.8,5.8,0,0,1-.968-11.526V39.71h6.687A5.812,5.812,0,0,1,44.742,44.548Z" transform="translate(-1.161 -0.968)" fill="#93c01f"/></g></svg>