<svg xmlns="http://www.w3.org/2000/svg" width="24" height="19.6" viewBox="0 0 24 19.6"><path d="M22.8,20.5a4.8,4.8,0,1,0,4.8,4.8A4.805,4.805,0,0,0,22.8,20.5Z" transform="translate(-10.8 -14.5)" fill="#fff"/><path d="M22.08,9.5h-3.41l-1.6-4H6.929l-1.6,4H4.8v-2H2.4v2H1.92A1.921,1.921,0,0,0,0,11.42V23.167A1.935,1.935,0,0,0,1.933,25.1H22.067A1.935,1.935,0,0,0,24,23.167V11.42A1.921,1.921,0,0,0,22.08,9.5ZM4,9.5H3.2V8.3H4Zm8,14a7.2,7.2,0,1,1,7.2-7.2A7.208,7.208,0,0,1,12,23.5Zm8.8-9.2a1.6,1.6,0,1,1,1.6-1.6A1.6,1.6,0,0,1,20.8,14.3Z" transform="translate(0 -5.5)" fill="#fff"/></svg>