<svg xmlns="http://www.w3.org/2000/svg" width="190" height="60" viewBox="0 0 190 60"><g transform="translate(-967.429 -1894)"><rect width="190" height="60" rx="6.692" transform="translate(967.429 1894)"/><path d="M58.136,29.133V31.4h5.511a4.731,4.731,0,0,1-1.276,2.863,5.673,5.673,0,0,1-4.248,1.665,6.055,6.055,0,1,1,0-12.109,5.9,5.9,0,0,1,4.172,1.627l1.62-1.6a8.071,8.071,0,0,0-5.779-2.359,8.456,8.456,0,0,0-7.576,4.069,8.257,8.257,0,0,0,0,8.524,8.456,8.456,0,0,0,7.576,4.069,7.7,7.7,0,0,0,5.881-2.333,7.519,7.519,0,0,0,1.99-5.323,7.329,7.329,0,0,0-.128-1.425Zm14.149-1.652a5.361,5.361,0,1,0,5.435,5.361,5.254,5.254,0,0,0-1.574-3.823,5.378,5.378,0,0,0-3.873-1.538Zm6.481,5.378a5.468,5.468,0,0,1,9.27-3.839,5.254,5.254,0,0,1,1.574,3.823,5.423,5.423,0,0,1-10.844.017Zm2.2,1.394a3.3,3.3,0,0,0,3.2,1.844,3.155,3.155,0,0,0,2.225-.989,3.083,3.083,0,0,0,.837-2.266,3.255,3.255,0,0,0-2.091-3.022,3.318,3.318,0,0,0-3.611.814A3.226,3.226,0,0,0,80.962,34.252Zm-11.886.01A3.3,3.3,0,0,0,72.284,36.1h-.013a3.155,3.155,0,0,0,2.225-.989,3.082,3.082,0,0,0,.837-2.266,3.255,3.255,0,0,0-2.094-3.023,3.318,3.318,0,0,0-3.612.82A3.226,3.226,0,0,0,69.076,34.262ZM111.3,27.481a5.1,5.1,0,0,1,4.644,3.418l.268.568-7.259,2.964a2.758,2.758,0,0,0,2.628,1.627,3.106,3.106,0,0,0,2.666-1.488l1.85,1.261a5.413,5.413,0,0,1-4.516,2.371,5.338,5.338,0,0,1-3.844-1.549,5.216,5.216,0,0,1-1.54-3.811,5.012,5.012,0,0,1,1.377-3.773A5.132,5.132,0,0,1,111.3,27.481Zm-2.756,5.209a2.919,2.919,0,0,1,.751-2.152,2.986,2.986,0,0,1,2.081-.976A2.109,2.109,0,0,1,113.39,30.7Zm-3.508,5.2h-2.386V22.12h2.386Zm-6.29-9.208h-.089A3.847,3.847,0,0,0,95.8,27.418a5.371,5.371,0,0,0,0,10.734,3.719,3.719,0,0,0,2.858-1.261h.077v.769c0,2.056-1.11,3.153-2.9,3.153a3,3,0,0,1-2.73-1.9l-2.079.858a5.168,5.168,0,0,0,4.81,3.166c2.794,0,5.1-1.627,5.1-5.588V27.8H98.744ZM96.011,36.1h0Zm2.15-1.011a3.05,3.05,0,0,1-2.15,1.011,3.264,3.264,0,0,1,0-6.508,3.075,3.075,0,0,1,2.142,1.024,3.005,3.005,0,0,1,.754,2.231A2.981,2.981,0,0,1,98.16,35.084ZM127.119,22.12h-5.7V37.887H123.8V31.908h3.33a4.979,4.979,0,0,0,4.592-2.34,4.858,4.858,0,0,0,0-5.108,4.979,4.979,0,0,0-4.592-2.34Zm-3.331,7.568h3.33l.051.038a2.706,2.706,0,1,0,0-5.411h-3.381Zm18.039-2.27a4.472,4.472,0,0,0-4.247,2.409l2.118.87a2.264,2.264,0,0,1,2.169-1.16,2.316,2.316,0,0,1,1.706.486,2.264,2.264,0,0,1,.845,1.544v.164a5.315,5.315,0,0,0-2.488-.606c-2.284,0-4.592,1.261-4.592,3.545a3.627,3.627,0,0,0,1.236,2.56,3.714,3.714,0,0,0,2.719.909,3.366,3.366,0,0,0,3.061-1.514h.076v1.261h2.3V31.82c0-2.762-2.119-4.364-4.836-4.364Zm-2.156,7.3c0,.946,1.085,1.337,1.863,1.337l.064.038a2.87,2.87,0,0,0,2.794-2.523,4.27,4.27,0,0,0-2.169-.53C141.022,33.043,139.67,33.46,139.67,34.721ZM155.1,27.8l-2.73,6.837h-.076L149.457,27.8h-2.551l4.247,9.561-2.424,5.31h2.488L157.75,27.8ZM136.035,37.887H133.65V22.12h2.385Z" transform="translate(979.237 1899.371)" fill="#fff" fill-rule="evenodd"/><path d="M85.407,12.4a4.053,4.053,0,0,0,0,5.613,3.962,3.962,0,1,0,0-5.613ZM56.65,18.044a3.4,3.4,0,0,0,.957-2.523,3.18,3.18,0,0,0-.051-.568H53.843v.908h2.768a2.37,2.37,0,0,1-.638,1.539,3.036,3.036,0,0,1-3.288.592,2.975,2.975,0,0,1-1.815-2.774A2.908,2.908,0,0,1,51.7,13.08a2.977,2.977,0,0,1,2.138-.888,2.565,2.565,0,0,1,2.092.9l.676-.669a3.152,3.152,0,0,0-1.2-.845,3.993,3.993,0,0,0-1.569-.315,3.849,3.849,0,0,0-2.819,1.135,3.94,3.94,0,0,0-.865,4.313,4.019,4.019,0,0,0,3.685,2.461A3.735,3.735,0,0,0,56.65,18.044Zm3.358-5.677h3.445v-.933H58.987V19h4.465v-.933H60.007v-2.4h3.138v-.908H60.007ZM67.635,19h-.982V12.367H64.509v-.933h5.32v.933H67.635Zm5.946-7.568V19h.982V11.434ZM78.926,19h-.982V12.367H75.8v-.933h5.256v.933H78.926Zm7.208-1.615a2.971,2.971,0,0,0,4.159,0,3.2,3.2,0,0,0,0-4.339,2.971,2.971,0,0,0-4.159,0A3.2,3.2,0,0,0,86.134,17.388Zm7.4-5.953V19h1V12.834L98.418,19h1.021V11.434h-.982v5.891l-3.725-5.891Z" transform="translate(979.357 1896.812)" fill="#fff" fill-rule="evenodd"/><path d="M85.472,18.083l-.234.223.007.007Zm0-5.613-.228-.229-.006.006Zm5.613,5.613.227.231.006-.007Zm0-5.613.233-.224,0,0ZM57.671,15.586h-.324V15.6Zm-.957,2.523.232.226h0Zm.906-3.09.318-.058L57.89,14.7h-.27Zm-3.713,0V14.7h-.324v.323Zm0,.908h-.324v.323h.324Zm2.768,0,.323.011.011-.334h-.334Zm-.638,1.539.223.234.007-.006.006-.007Zm-3.288.592.127-.3Zm-1.815-2.774.324,0v-.016Zm2.973-3.027,0,.323h.019Zm2.092.9-.246.21.226.265.248-.245Zm.676-.669.227.23.217-.215-.2-.229Zm-1.2-.845-.126.3.006,0Zm-1.569-.315-.007.323h.008Zm-2.819,1.135.228.229,0,0Zm-.865,4.312-.3.124h0Zm3.685,2.461.011-.323H53.91Zm9.609-6.8v.323h.323v-.323Zm-3.445,0v-.323h-.323v.323Zm3.445-.933h.323v-.324h-.323Zm-4.465,0v-.324h-.323V11.5Zm0,7.568h-.323v.323h.323Zm4.465,0v.323h.323v-.323Zm0-.933h.323V17.81h-.323Zm-3.445,0h-.323v.323h.323Zm0-2.4v-.323h-.323v.323Zm3.138,0v.323h.323v-.323Zm0-.908h.323v-.323H63.21Zm-3.138,0h-.323v.323h.323Zm6.645,4.238h-.324v.323h.324Zm.982,0v.323h.324v-.323Zm-.982-6.635h.323v-.323h-.323Zm-2.143,0H64.25v.323h.323Zm0-.933v-.324H64.25V11.5Zm5.32,0h.323v-.324h-.323Zm0,.933v.323h.323v-.323Zm-2.194,0v-.323h-.323v.323Zm5.946,6.635h-.323v.323h.323Zm0-7.568v-.324h-.323V11.5Zm.982,7.568v.323h.323v-.323Zm0-7.568h.323v-.324h-.323Zm3.381,7.568h-.323v.323h.323Zm.982,0v.323h.323v-.323Zm-.982-6.635h.323v-.323h-.323Zm-2.143,0h-.323v.323h.323Zm0-.933v-.324h-.323V11.5Zm5.256,0h.323v-.324h-.323Zm0,.933v.323h.323v-.323Zm-2.131,0v-.323h-.323v.323Zm11.367,5.02.227.231.011-.012Zm-4.159,0-.239.219.012.012Zm4.159-4.339.239-.219-.012-.012Zm-4.159,0-.227-.231-.011.012Zm7.4,5.954h-.323v.323H93.6Zm0-7.568v-.324h-.323V11.5Zm1,7.568v.323h.323v-.323Zm0-6.168.274-.173-.6-.946V12.9Zm3.891,6.168-.273.173.1.151h.178Zm1.021,0v.323h.323v-.323Zm0-7.568h.323v-.324H99.5Zm-.982,0v-.324H98.2V11.5Zm0,5.891-.273.173.6.944V17.389ZM94.8,11.5l.273-.173-.1-.151H94.8Zm-9.09,6.361a3.73,3.73,0,0,1,0-5.166l-.468-.447a4.377,4.377,0,0,0,0,6.06Zm5.153-.007a3.689,3.689,0,0,1-5.16,0l-.453.461a4.336,4.336,0,0,0,6.067,0Zm-.006-5.159a3.718,3.718,0,0,1,0,5.165l.466.448a4.364,4.364,0,0,0,0-6.061Zm-2.574-1.056A3.654,3.654,0,0,1,90.857,12.7l.457-.458a4.3,4.3,0,0,0-3.035-1.25ZM85.7,12.7a3.654,3.654,0,0,1,2.578-1.061v-.647a4.3,4.3,0,0,0-3.035,1.25ZM57.348,15.6a3.073,3.073,0,0,1-.866,2.283l.465.45a3.72,3.72,0,0,0,1.048-2.763Zm-.046-.525a2.844,2.844,0,0,1,.046.51h.647a3.489,3.489,0,0,0-.056-.625Zm-3.394.266H57.62V14.7H53.908Zm.323.585v-.908h-.647v.908Zm2.445-.323H53.908v.647h2.768Zm-.4,2.083A2.693,2.693,0,0,0,57,15.937l-.646-.021a2.046,2.046,0,0,1-.551,1.329Zm-3.651.669a3.36,3.36,0,0,0,3.638-.655l-.447-.467a2.713,2.713,0,0,1-2.937.528Zm-2.012-3.076a3.3,3.3,0,0,0,2.012,3.076l.254-.595a2.652,2.652,0,0,1-1.619-2.472Zm.927-2.361a3.231,3.231,0,0,0-.927,2.377l.646-.023a2.585,2.585,0,0,1,.742-1.9Zm2.37-.985a3.3,3.3,0,0,0-2.37.985l.462.453a2.653,2.653,0,0,1,1.906-.791Zm2.337,1.01a2.888,2.888,0,0,0-2.356-1.009l.035.646a2.242,2.242,0,0,1,1.828.782Zm.2-.689-.676.668.455.46.676-.669Zm-1.092-.315a2.825,2.825,0,0,1,1.076.758l.486-.427a3.474,3.474,0,0,0-1.322-.932Zm-1.448-.292a3.671,3.671,0,0,1,1.442.29l.252-.6a4.315,4.315,0,0,0-1.7-.341Zm-2.591,1.039A3.527,3.527,0,0,1,53.9,11.646L53.915,11a4.173,4.173,0,0,0-3.056,1.231Zm-.8,3.961a3.617,3.617,0,0,1,.8-3.959l-.456-.458a4.264,4.264,0,0,0-.936,4.666Zm3.389,2.262a3.7,3.7,0,0,1-3.389-2.262l-.6.249a4.342,4.342,0,0,0,3.981,2.66Zm2.573-1.025a3.412,3.412,0,0,1-2.564,1.025l-.023.646a4.057,4.057,0,0,0,3.05-1.22Zm7.034-5.775H60.072v.647h3.445Zm-.323-.61v.933h.647V11.5Zm-4.142.323h4.465v-.647H59.051Zm.323,7.245V11.5h-.647v7.568Zm4.142-.323H59.051v.647h4.465Zm-.323-.61v.933h.647v-.933Zm-3.121.323h3.445V17.81H60.072Zm-.323-2.72v2.4H60.4v-2.4Zm3.462-.323H60.072v.647H63.21Zm-.323-.585v.908h.647v-.908Zm-2.815.323H63.21v-.647H60.072Zm-.323-2.72v2.4H60.4v-2.4Zm6.968,6.958H67.7v-.647h-.982Zm-.324-6.958v6.635h.647V12.432Zm-1.82.323h2.143v-.647H64.574ZM64.25,11.5v.933H64.9V11.5Zm5.643-.324h-5.32v.647h5.32Zm.323,1.257V11.5H69.57v.933Zm-2.518.323h2.194v-.647H67.7Zm.324,6.311V12.432h-.647v6.635Zm5.946,0V11.5h-.647v7.568Zm.659-.323h-.982v.647h.982ZM74.3,11.5v7.568h.647V11.5Zm-.659.323h.982v-.647h-.982Zm4.363,7.568h.982v-.647h-.982Zm-.323-6.958v6.635h.647V12.432Zm-1.82.323h2.143v-.647H75.865ZM75.542,11.5v.933h.647V11.5Zm5.579-.324H75.865v.647h5.256Zm.323,1.257V11.5H80.8v.933Zm-2.454.323h2.131v-.647H78.991Zm.323,6.311V12.432h-.647v6.635Zm10.816-1.845a2.648,2.648,0,0,1-3.705,0l-.454.461a3.294,3.294,0,0,0,4.613,0Zm-.011-3.89a2.879,2.879,0,0,1,0,3.9l.477.437a3.526,3.526,0,0,0,0-4.777Zm-3.694.012a2.648,2.648,0,0,1,3.705,0l.454-.461a3.294,3.294,0,0,0-4.613,0Zm.012,3.89a2.879,2.879,0,0,1,0-3.9l-.477-.437a3.526,3.526,0,0,0,0,4.777Zm7.483,1.833V11.5h-.647v7.568Zm.672-.323h-1v.647h1ZM94.268,12.9v6.168h.647V12.9Zm4.488,6-3.891-6.168-.547.345,3.891,6.168Zm.747-.151H98.482v.647H99.5ZM99.18,11.5v7.568h.647V11.5Zm-.659.323H99.5v-.647h-.982Zm.323,5.567V11.5H98.2v5.891Zm-4.322-5.718,3.725,5.891.547-.346-3.725-5.891Zm-.926.151h1.2v-.647H93.6Z" transform="translate(979.293 1896.748)" fill="#fff"/><g transform="translate(989.186 1908.415)"><path d="M18.433,11.959a2.5,2.5,0,0,0-.587,1.766v27.9a2.5,2.5,0,0,0,.587,1.766l.089.088L34.329,27.865V27.5L18.522,11.871Z" transform="translate(-17.833 -11.448)" fill="#00d6ff"/><path d="M36.262,30.994l-5.231-5.21v-.366L36.262,20.2l.115.063,6.264,3.519c1.786,1,1.786,2.636,0,3.646L36.4,30.931Z" transform="translate(-14.535 -9.366)" fill="#ffc701"/><path d="M39.6,29.838l-5.384-5.323-15.9,15.717a2.1,2.1,0,0,0,2.654.076L39.608,29.838" transform="translate(-17.714 -8.287)" fill="#fb3847"/><path d="M39.6,22.438,20.957,11.968a2.1,2.1,0,0,0-2.654.076L34.213,27.761Z" transform="translate(-17.717 -11.532)" fill="#00f076"/><path d="M39.442,28.683,20.956,39.089a2.15,2.15,0,0,1-2.552,0l-.089.088.089.088a2.137,2.137,0,0,0,2.552,0L39.6,28.8Z" transform="translate(-17.714 -7.245)" fill="#fff" opacity="0.2"/><path d="M39.559,29.725l6.379-3.57a2.35,2.35,0,0,0,1.276-1.64,2.208,2.208,0,0,1-1.276,1.816l-6.264,3.507Zm-21.716,8.81a2.507,2.507,0,0,0,.59,1.52l.089.1-.089.088A2.505,2.505,0,0,1,17.844,38.535Zm0,0c0-.019,0-.037,0-.056v-.189Q17.839,38.413,17.844,38.535Z" transform="translate(-17.833 -8.287)" fill="#fff" fill-rule="evenodd" opacity="0.12"/><path d="M21.075,12.144,45.94,26.12a2.351,2.351,0,0,1,1.276,1.64,2.208,2.208,0,0,0-1.276-1.816L21.075,11.967c-1.786-1-3.24-.164-3.24,1.854v.189C17.873,11.98,19.3,11.147,21.075,12.144Z" transform="translate(-17.834 -11.529)" fill="#fff" opacity="0.25"/></g></g></svg>