<svg xmlns="http://www.w3.org/2000/svg" xmlns:xlink="http://www.w3.org/1999/xlink" width="50" height="50" viewBox="0 0 50 50"><defs><linearGradient id="a" x1="0.5" x2="0.5" y2="1" gradientUnits="objectBoundingBox"><stop offset="0" stop-color="#9bcb20"/><stop offset="1" stop-color="#93c01f"/></linearGradient></defs><rect width="24.286" height="24.286" transform="translate(14.286 12.857)" fill="#fff"/><path d="M42.678,7.322a25,25,0,1,0,0,35.356A25,25,0,0,0,42.678,7.322ZM35.923,26.53l-7.81,4.485-7.652,4.433a1.624,1.624,0,0,1-1,.317,1.779,1.779,0,0,1-1.794-1.794V15.976a1.864,1.864,0,0,1,.211-.9,1.743,1.743,0,0,1,2.427-.633l7.7,4.433c.053,0,.053.053.106.053l7.81,4.485a2.583,2.583,0,0,1,.686.633A1.854,1.854,0,0,1,35.923,26.53Z" fill="url(#a)"/></svg>