<?xml version="1.0" encoding="UTF-8"?>
<svg xmlns="http://www.w3.org/2000/svg" xmlns:xlink="http://www.w3.org/1999/xlink" width="18pt" height="18pt" viewBox="0 0 18 18" version="1.1">
<g id="surface1">
<path style=" stroke:none;fill-rule:nonzero;fill:rgb(58.431373%,76.862745%,12.156863%);fill-opacity:1;" d="M 7.804688 0.078125 C 7.804688 0.148438 7.996094 1.632812 8.03125 1.835938 C 8.046875 1.921875 8.035156 1.933594 7.90625 1.96875 C 7.824219 1.988281 7.757812 2.003906 7.753906 1.996094 C 7.75 1.988281 7.582031 1.585938 7.382812 1.101562 C 7.1875 0.613281 7.015625 0.21875 7 0.226562 C 6.988281 0.226562 6.515625 0.5 5.953125 0.828125 L 4.921875 1.414062 L 4.988281 1.507812 C 5.027344 1.558594 5.292969 1.910156 5.585938 2.285156 L 6.117188 2.96875 L 6.007812 3.070312 C 5.9375 3.132812 5.886719 3.15625 5.859375 3.136719 C 4.6875 2.234375 4.421875 2.035156 4.382812 2.023438 C 4.355469 2.007812 4.128906 2.375 3.75 3.023438 C 3.429688 3.582031 3.164062 4.054688 3.164062 4.066406 C 3.164062 4.085938 3.558594 4.257812 4.035156 4.453125 L 4.90625 4.808594 L 4.898438 4.941406 C 4.890625 5.011719 4.878906 5.078125 4.871094 5.089844 C 4.863281 5.097656 4.433594 5.046875 3.917969 4.980469 C 3.398438 4.910156 2.960938 4.863281 2.945312 4.871094 C 2.910156 4.894531 2.90625 7.230469 2.945312 7.253906 C 2.960938 7.261719 3.390625 7.214844 3.914062 7.144531 C 4.429688 7.078125 4.859375 7.027344 4.867188 7.039062 C 4.878906 7.046875 4.890625 7.117188 4.898438 7.1875 L 4.90625 7.316406 L 4.03125 7.675781 C 3.53125 7.882812 3.167969 8.050781 3.171875 8.074219 C 3.199219 8.191406 4.34375 10.125 4.378906 10.109375 C 4.40625 10.101562 4.695312 9.882812 5.03125 9.625 C 5.367188 9.367188 5.703125 9.109375 5.777344 9.054688 L 5.910156 8.953125 L 5.992188 9.035156 C 6.042969 9.082031 6.082031 9.136719 6.082031 9.15625 C 6.082031 9.179688 5.851562 9.496094 5.570312 9.863281 C 5.289062 10.230469 5.027344 10.570312 4.988281 10.621094 L 4.925781 10.710938 L 5.953125 11.304688 C 6.519531 11.625 6.988281 11.898438 7 11.902344 C 7.015625 11.910156 7.1875 11.515625 7.386719 11.023438 L 7.75 10.125 L 7.875 10.144531 C 7.941406 10.160156 8.007812 10.179688 8.023438 10.191406 C 8.035156 10.203125 7.992188 10.605469 7.925781 11.09375 C 7.859375 11.574219 7.804688 12.007812 7.804688 12.046875 L 7.804688 12.128906 L 9 12.128906 C 10.136719 12.128906 10.195312 12.125 10.195312 12.066406 C 10.195312 12 10 10.503906 9.96875 10.3125 C 9.949219 10.207031 9.957031 10.195312 10.074219 10.164062 C 10.148438 10.140625 10.214844 10.136719 10.230469 10.140625 C 10.246094 10.148438 10.417969 10.554688 10.617188 11.035156 C 10.8125 11.519531 10.984375 11.910156 11 11.902344 C 11.105469 11.851562 13.03125 10.742188 13.050781 10.726562 C 13.0625 10.710938 12.808594 10.355469 12.480469 9.929688 L 11.886719 9.15625 L 11.980469 9.058594 C 12.03125 9.007812 12.078125 8.964844 12.089844 8.964844 C 12.105469 8.964844 12.449219 9.226562 12.863281 9.546875 C 13.277344 9.863281 13.625 10.125 13.636719 10.125 C 13.660156 10.125 14.8125 8.140625 14.828125 8.070312 C 14.832031 8.050781 14.453125 7.875 13.96875 7.675781 L 13.09375 7.316406 L 13.101562 7.1875 C 13.109375 7.117188 13.121094 7.046875 13.132812 7.039062 C 13.144531 7.019531 14.796875 7.226562 14.96875 7.265625 L 15.046875 7.285156 L 15.046875 4.839844 L 14.953125 4.863281 C 14.699219 4.910156 13.144531 5.105469 13.132812 5.089844 C 13.121094 5.078125 13.109375 5.011719 13.101562 4.941406 L 13.09375 4.808594 L 13.964844 4.453125 C 14.441406 4.257812 14.835938 4.082031 14.835938 4.066406 C 14.835938 4.054688 14.570312 3.582031 14.25 3.023438 C 13.875 2.382812 13.640625 2.011719 13.617188 2.023438 C 13.582031 2.03125 12.910156 2.542969 12.136719 3.140625 C 12.085938 3.179688 11.917969 3.042969 11.917969 2.96875 C 11.917969 2.945312 12.136719 2.644531 12.402344 2.300781 C 12.671875 1.953125 12.929688 1.613281 12.984375 1.542969 L 13.078125 1.417969 L 12.050781 0.828125 C 11.484375 0.5 11.011719 0.226562 11 0.226562 C 10.984375 0.21875 10.8125 0.609375 10.617188 1.09375 C 10.417969 1.574219 10.246094 1.980469 10.230469 1.984375 C 10.214844 1.992188 10.148438 1.984375 10.074219 1.964844 C 9.957031 1.933594 9.949219 1.921875 9.96875 1.816406 C 10 1.625 10.195312 0.128906 10.195312 0.0625 C 10.195312 0.00390625 10.136719 0 9 0 L 7.804688 0 Z M 9.53125 3.839844 C 9.824219 4.425781 10.066406 4.90625 10.070312 4.914062 C 10.074219 4.917969 10.574219 4.996094 11.183594 5.082031 C 11.792969 5.167969 12.320312 5.25 12.359375 5.257812 C 12.425781 5.269531 12.308594 5.398438 11.65625 6.035156 C 11.234375 6.453125 10.84375 6.832031 10.804688 6.871094 L 10.722656 6.945312 L 10.925781 8.128906 C 11.039062 8.78125 11.125 9.316406 11.121094 9.316406 C 11.113281 9.316406 10.644531 9.070312 10.074219 8.773438 C 9.507812 8.472656 9.019531 8.226562 8.996094 8.226562 C 8.976562 8.226562 8.492188 8.472656 7.921875 8.773438 C 7.347656 9.074219 6.878906 9.316406 6.875 9.308594 C 6.871094 9.300781 6.960938 8.769531 7.074219 8.121094 L 7.277344 6.945312 L 7.148438 6.824219 C 7.074219 6.757812 6.6875 6.382812 6.289062 5.988281 C 5.679688 5.386719 5.570312 5.269531 5.640625 5.257812 C 5.679688 5.25 6.164062 5.175781 6.714844 5.097656 C 7.265625 5.019531 7.765625 4.945312 7.824219 4.9375 C 7.929688 4.917969 7.960938 4.863281 8.457031 3.851562 C 8.746094 3.261719 8.984375 2.78125 8.988281 2.78125 C 8.996094 2.777344 9.238281 3.253906 9.53125 3.839844 Z M 4.410156 10.976562 C 4.175781 11.339844 1.320312 16.332031 1.335938 16.339844 C 1.351562 16.34375 1.84375 16.214844 2.441406 16.046875 C 3.039062 15.878906 3.527344 15.75 3.53125 15.757812 C 3.535156 15.765625 3.664062 16.25 3.8125 16.839844 C 3.960938 17.429688 4.09375 17.921875 4.109375 17.9375 C 4.125 17.949219 4.839844 16.734375 5.707031 15.238281 C 6.574219 13.734375 7.277344 12.503906 7.269531 12.5 C 7.261719 12.5 7.070312 12.433594 6.839844 12.359375 C 6.609375 12.28125 6.242188 12.125 6.019531 12.015625 C 5.488281 11.75 5.167969 11.53125 4.535156 11.011719 C 4.457031 10.949219 4.429688 10.941406 4.410156 10.976562 Z M 13.355469 11.097656 C 12.675781 11.679688 11.902344 12.117188 11.085938 12.382812 C 10.894531 12.445312 10.738281 12.5 10.730469 12.5 C 10.722656 12.503906 11.425781 13.734375 12.292969 15.238281 C 13.160156 16.734375 13.875 17.949219 13.890625 17.9375 C 13.902344 17.921875 14.058594 17.273438 14.238281 16.488281 C 14.417969 15.703125 14.566406 15.0625 14.570312 15.058594 C 14.570312 15.054688 14.988281 15.304688 15.488281 15.613281 C 15.988281 15.925781 16.46875 16.222656 16.558594 16.269531 L 16.714844 16.363281 L 16.640625 16.242188 C 16.601562 16.175781 15.898438 14.960938 15.082031 13.554688 C 14.269531 12.140625 13.589844 10.976562 13.574219 10.957031 C 13.558594 10.945312 13.460938 11.007812 13.355469 11.097656 Z M 13.355469 11.097656 "/>
</g>
</svg>
