<svg id="SvgjsSvg1001" width="288" height="288" xmlns="http://www.w3.org/2000/svg" version="1.1" xmlns:xlink="http://www.w3.org/1999/xlink" xmlns:svgjs="http://svgjs.com/svgjs"><defs id="SvgjsDefs1002"></defs><g id="SvgjsG1008" transform="matrix(1,0,0,1,0,0)"><svg xmlns="http://www.w3.org/2000/svg" width="288" height="288" version="1.0" viewBox="0 0 512 512"><g transform="matrix(.1 0 0 -.1 0 512)" fill="#95c41f" class="color000 svgShape"><path d="M2220 5098c0-20 54-442 65-500 4-25 1-28-36-38-23-6-42-10-43-8-1 2-49 117-106 255-56 139-105 251-109 249-3-1-138-78-298-171l-293-167 19-27c11-14 87-114 170-221l151-195-31-28c-20-18-35-25-42-19-334 257-409 313-420 317-8 4-73-100-180-285-92-159-167-293-167-297 0-5 112-54 248-110l247-101-2-38c-2-20-5-39-7-42-3-2-125 12-272 31-147 20-272 34-276 31-10-6-11-671 0-677 4-3 127 11 275 31 147 19 269 33 272 30 3-3 6-22 8-42l2-37-248-102c-143-59-246-107-245-114 8-33 334-583 344-579 7 3 90 65 185 138 96 74 191 147 212 162l38 29 24-23c14-13 25-29 25-35 0-6-66-96-146-201-80-104-154-201-165-215l-18-26 292-168c161-92 295-169 298-171 4-2 53 111 110 251l104 255 35-6c19-4 38-9 42-13 4-3-9-118-28-256-18-137-34-260-34-272l0-23 340 0c323 0 340 1 340 18 0 19-55 444-65 499-5 30-3 33 31 42 21 6 40 8 44 6 4-2 53-117 110-254 56-138 105-249 109-247 30 15 578 331 583 335 4 4-69 105-162 226l-169 220 27 28c14 15 28 27 31 27 4 0 102-74 220-165 118-91 217-165 220-165 7 0 334 565 339 584 1 6-107 56-245 113l-248 102 2 37c2 20 5 39 8 42 4 5 474-54 523-65l22-5 0 347 0 348-27-6c-72-14-514-69-518-65-3 3-6 22-8 42l-2 38 247 101c136 56 248 106 248 110 0 4-75 138-167 297-106 182-173 288-180 285-10-3-201-148-421-318-14-11-62 27-62 49 0 6 62 92 138 190 76 99 150 195 165 215l27 36-292 168c-161 93-296 170-299 171-4 2-53-109-109-247-57-137-106-252-110-254-4-2-23 0-44 6-34 9-36 12-31 42 10 55 65 480 65 499 0 17-17 18-340 18l-340 0 0-22zm491-1070c83-167 152-304 154-306 1-1 143-23 316-48 173-24 324-47 335-49 18-4-15-41-200-222-121-119-231-226-243-237l-23-21 58-337c32-186 57-338 55-338-2 0-135 70-297 155-162 85-300 155-307 155-6 0-144-70-306-156-163-85-296-154-298-152-1 2 25 154 57 338l58 335-37 34c-21 19-131 126-244 238-174 171-204 204-185 208 11 2 149 23 306 45 157 22 299 43 316 46 29 5 38 21 180 309 82 167 150 304 151 304 2 1 71-135 154-301zM1254 1998c-66-104-879-1524-874-1526 4-1 145 36 314 83 170 48 309 85 311 83 1-2 37-140 80-308 42-168 80-308 84-312 4-4 208 342 454 768 247 427 447 777 445 778-2 0-57 19-122 41-66 22-171 66-234 97-151 76-242 138-422 286-22 18-30 20-36 10zM3799 1963c-193-165-413-290-646-365-54-18-99-33-101-34-2-1 198-351 445-778 246-426 450-772 454-768 3 4 48 189 99 412 51 223 93 406 94 407 1 1 119-70 262-158 142-89 279-173 304-187l44-26-21 34c-11 19-211 364-443 765-231 402-424 733-429 738-4 4-32-14-62-40z" fill="#95c41f" class="color000 svgShape"></path></g></svg></g></svg>