<svg xmlns="http://www.w3.org/2000/svg" width="60" height="60" viewBox="0 0 60 60"><g transform="translate(0 0)"><path d="M59,53.278V30a.978.978,0,0,0-.115-.443h.01l-2.448-4.9A2.983,2.983,0,0,0,53.764,23H47V22a1,1,0,0,0-.293-.707l-5.414-5.414A2.96,2.96,0,0,0,40,15.13V8.385l2-.537v2.429a3.065,3.065,0,0,0,1.367,2.555,1,1,0,0,0,1.11-1.664A1.068,1.068,0,0,1,44,10.277V7.223a2,2,0,0,0-.48-3.663L30.514.068a1.991,1.991,0,0,0-1.028,0L16.48,3.56a2.011,2.011,0,0,0,0,3.88L20,8.385V15h-.063a2.992,2.992,0,0,0-2.3,1.08l-4.4,5.28A1,1,0,0,0,13,22v1H6.236a2.983,2.983,0,0,0-2.683,1.658l-2.448,4.9h.01A.978.978,0,0,0,1,30V53.278A1.993,1.993,0,0,0,0,55v2a2,2,0,0,0,2,2H15.278A1.993,1.993,0,0,0,17,60H43a1.993,1.993,0,0,0,1.722-1H58a2,2,0,0,0,2-2V55A1.993,1.993,0,0,0,59,53.278ZM44,53H43V31H57V53ZM33,53H27V42h6Zm1-13H26a1,1,0,0,0-1,1V53H19V31H41V53H35V41A1,1,0,0,0,34,40ZM45,23v2H15V23Zm-2,4v2H17V27Zm10.764-2a.994.994,0,0,1,.894.553L56.382,29H45V27a2,2,0,0,0,2-2ZM30,2,43.014,5.5H43L30,9,17,5.492ZM22,8.922l7.486,2.01a1.977,1.977,0,0,0,1.028,0L38,8.922V15H22ZM19.169,17.36a1,1,0,0,1,.768-.36H39.171a1,1,0,0,1,.708.293L43.586,21H16.135ZM5.342,25.553A.994.994,0,0,1,6.236,25H13a2,2,0,0,0,2,2v2H3.618ZM2,55H15v2H2Zm14-2H3V31H17V53Zm1,5V55H43v3Zm41-1H45V55H58Z" fill="#93c01f"/><path d="M27,33a1,1,0,0,0-1,1v2a1,1,0,0,0,2,0V34A1,1,0,0,0,27,33Z" fill="#93c01f"/><path d="M13,34a1,1,0,0,0-1,1v2a1,1,0,0,0,2,0V35A1,1,0,0,0,13,34Z" fill="#93c01f"/><path d="M7,34a1,1,0,0,0-1,1v2a1,1,0,0,0,2,0V35A1,1,0,0,0,7,34Z" fill="#93c01f"/><path d="M13,40a1,1,0,0,0-1,1v2a1,1,0,0,0,2,0V41A1,1,0,0,0,13,40Z" fill="#93c01f"/><path d="M7,40a1,1,0,0,0-1,1v2a1,1,0,0,0,2,0V41A1,1,0,0,0,7,40Z" fill="#93c01f"/><path d="M13,46a1,1,0,0,0-1,1v2a1,1,0,0,0,2,0V47A1,1,0,0,0,13,46Z" fill="#93c01f"/><path d="M7,46a1,1,0,0,0-1,1v2a1,1,0,0,0,2,0V47A1,1,0,0,0,7,46Z" fill="#93c01f"/><path d="M53,34a1,1,0,0,0-1,1v2a1,1,0,0,0,2,0V35A1,1,0,0,0,53,34Z" fill="#93c01f"/><path d="M47,34a1,1,0,0,0-1,1v2a1,1,0,0,0,2,0V35A1,1,0,0,0,47,34Z" fill="#93c01f"/><path d="M53,40a1,1,0,0,0-1,1v2a1,1,0,0,0,2,0V41A1,1,0,0,0,53,40Z" fill="#93c01f"/><path d="M47,40a1,1,0,0,0-1,1v2a1,1,0,0,0,2,0V41A1,1,0,0,0,47,40Z" fill="#93c01f"/><path d="M53,46a1,1,0,0,0-1,1v2a1,1,0,0,0,2,0V47A1,1,0,0,0,53,46Z" fill="#93c01f"/><path d="M47,46a1,1,0,0,0-1,1v2a1,1,0,0,0,2,0V47A1,1,0,0,0,47,46Z" fill="#93c01f"/><path d="M33,33a1,1,0,0,0-1,1v2a1,1,0,0,0,2,0V34A1,1,0,0,0,33,33Z" fill="#93c01f"/></g></svg>