<svg xmlns="http://www.w3.org/2000/svg" width="38.872" height="35" viewBox="0 0 38.872 35"><g transform="translate(0 -25.502)"><path d="M216.975,44.827l.263.063.263-.063a9.483,9.483,0,0,0,7.29-9.226V29.464L217.239,25.5l-7.554,3.962V35.6a9.483,9.483,0,0,0,7.29,9.226Zm-5.013-13.985,5.276-2.768,5.276,2.768V35.6a7.18,7.18,0,0,1-5.276,6.943,7.18,7.18,0,0,1-5.276-6.943Z" transform="translate(-193.765)" fill="#93c01f"/><path d="M267.956,121.945l-1.611-1.611-2.693,2.692-1.483-1.463-1.6,1.621,3.093,3.053Z" transform="translate(-240.787 -87.632)" fill="#93c01f"/><path d="M37.788,266.777a3.7,3.7,0,0,0-5.108-.123l-4.94,4.487a3.706,3.706,0,0,0-3.4-2.237H18.122a7.995,7.995,0,0,0-10.1-1.073,3.27,3.27,0,0,0-3.187-2.558H0v16.8H4.834a3.268,3.268,0,0,0,2.926-1.819l5.382,1.819H27.363L37.74,272.061a3.7,3.7,0,0,0,.048-5.284ZM5.821,278.8a.988.988,0,0,1-.987.987H2.278V267.55H4.834a.988.988,0,0,1,.987.987Zm30.338-8.382-9.715,9.369H13.516L8.1,277.959v-7.2a5.718,5.718,0,0,1,8.66.023l.341.4h7.241a1.424,1.424,0,1,1,0,2.847h-6.5v2.278h6.5a3.7,3.7,0,0,0,3.272-1.973l6.6-5.993a1.425,1.425,0,0,1,1.948,2.081Z" transform="translate(0 -221.566)" fill="#93c01f"/></g></svg>