<svg xmlns="http://www.w3.org/2000/svg" width="20.8" height="20.8" viewBox="0 0 20.8 20.8"><g transform="translate(0.4 0.4)"><path d="M164.289,0H159.1a.521.521,0,0,0,0,1.042h3.943L152.909,11.27a.521.521,0,0,0,.74.733l10.12-10.216V5.714a.521.521,0,0,0,1.042,0V.521A.521.521,0,0,0,164.289,0Zm0,0" transform="translate(-144.81)" fill="#93c01f" stroke="#93c01f" stroke-width="0.8"/><path d="M16.882,58.437a.521.521,0,0,0-.521.521v5.7A1.564,1.564,0,0,1,14.8,66.224H2.6a1.564,1.564,0,0,1-1.563-1.562V52.467A1.564,1.564,0,0,1,2.6,50.9h5.7a.521.521,0,0,0,0-1.042H2.6a2.607,2.607,0,0,0-2.6,2.6V64.662a2.607,2.607,0,0,0,2.6,2.6H14.8a2.607,2.607,0,0,0,2.6-2.6v-5.7A.521.521,0,0,0,16.882,58.437Zm0,0" transform="translate(0 -47.266)" fill="#93c01f" stroke="#93c01f" stroke-width="0.8"/></g></svg>