<svg xmlns="http://www.w3.org/2000/svg" width="56" height="60" viewBox="0 0 56 60"><g transform="translate(-32 -16)"><path d="M42.771,71.973l17,4a1,1,0,0,0,.458,0l17-4A1,1,0,0,0,78,71V66h5a1,1,0,0,0,.985-.829l4-23a1,1,0,0,0-.042-.5l-6-17a1,1,0,0,0-.7-.637L69.57,21.112l-3.789-4.737A1,1,0,0,0,65.01,16H54.99a1,1,0,0,0-.771.375L50.43,21.112,38.758,24.03a1,1,0,0,0-.7.637l-6,17a1,1,0,0,0-.042.5l4,23A1,1,0,0,0,37,66h5v5a1,1,0,0,0,.771.973ZM60,21.438,57.135,18h5.73ZM78,64V61h4.681l-.522,3Zm7.97-21.914L83.029,59H78V36H76V70.208L61,73.737V25.414l3.293,3.293A1,1,0,0,0,65,29c.033,0,.066,0,.1,0a1,1,0,0,0,.734-.44l3.609-5.414,10.795,2.7ZM67.763,22.054,64.845,26.43l-3.492-3.492,3.631-4.358ZM55.016,18.581l3.631,4.358L55.156,26.43l-2.918-4.377ZM39.764,25.84l10.795-2.7,3.609,5.414A1,1,0,0,0,54.9,29a.979.979,0,0,0,.1,0,1,1,0,0,0,.707-.293L59,25.414V73.737L44,70.208V36H42V59H36.972L34.03,42.086ZM37.32,61H42v3H37.841Z" fill="#93c01f"/><path d="M281,168a1,1,0,0,0-1,1v8a1,1,0,0,0,1,1h8a1,1,0,0,0,1-1v-8a1,1,0,0,0-1-1Zm7,8h-6v-6h6Z" transform="translate(-217 -133)" fill="#93c01f"/></g></svg>