<svg xmlns="http://www.w3.org/2000/svg" width="35" height="35" viewBox="0 0 35 35"><g transform="translate(10.487)"><path d="M177.91,16.085C176.741,6.774,170.432.759,160.93,0l-1.019.014c-1.627.273-3.657.772-4.929,2.215a7.1,7.1,0,0,0-1.552,3.65c-.355,4.45,2.857,6.132,5.441,7.485,0,0,3.418,1.784,5.113,2.659l2.974,1.545a11.566,11.566,0,0,1,3.295,2.27,9.089,9.089,0,0,1,2.338,7.144,1.1,1.1,0,0,0,.636,1.06,1.084,1.084,0,0,0,1.217-.205,7.731,7.731,0,0,0,1.347-1.859,17.32,17.32,0,0,0,2.044-6.781,1.022,1.022,0,0,0,.082-.41Zm-2.181,2.481a1.233,1.233,0,0,0-.055.267,15.51,15.51,0,0,1-1.128,4.7,10.686,10.686,0,0,0-2.687-5.168,14.094,14.094,0,0,0-3.89-2.728l-2.98-1.552c-1.688-.875-3.37-1.75-5.024-2.618l-.082-.041c-2.81-1.47-4.5-2.563-4.272-5.373a4.969,4.969,0,0,1,1.012-2.379,6.385,6.385,0,0,1,3.473-1.49h.745c8.3.663,13.87,5.961,14.889,14.034Z" transform="translate(-153.404)" fill="#93c01f"/></g><g transform="translate(0 5.126)"><path d="M26.12,94.5c-.636-2.3-2.666-3.657-4.771-4.778-1.463-.779-2.892-1.511-4.32-2.242-1.347-.69-2.693-1.388-4.081-2.119l-.191-.1a14.119,14.119,0,0,1-3.384-2.2,9.155,9.155,0,0,1-2.324-4.594,19.356,19.356,0,0,1-.109-2.386A1.1,1.1,0,0,0,6.3,75.09a1.088,1.088,0,0,0-1.169.157A14.544,14.544,0,0,0,1.292,81,17.926,17.926,0,0,0,0,86.718v1.408A17.624,17.624,0,0,0,16.215,104.86l2.352-.014a8.96,8.96,0,0,0,5.175-2.7C24.562,101.292,27.139,98.2,26.12,94.5Zm-3.965,6.139a6.811,6.811,0,0,1-3.76,2.03l-2.058.007a15.343,15.343,0,0,1-9.823-4.648,15.558,15.558,0,0,1-4.327-9.967V86.773A15.675,15.675,0,0,1,3.336,81.8a15,15,0,0,1,1.552-2.987v.021A11.3,11.3,0,0,0,7.82,84.612,15.942,15.942,0,0,0,11.73,87.2l.191.1c1.395.731,2.748,1.436,4.108,2.126,1.422.725,2.837,1.456,4.286,2.229,1.675.889,3.281,1.921,3.691,3.425C24.719,97.683,22.771,99.993,22.155,100.643Z" transform="translate(0 -74.986)" fill="#93c01f"/></g></svg>