<svg xmlns="http://www.w3.org/2000/svg" width="20.001" height="20" viewBox="0 0 20.001 20"><g transform="translate(0 0.001)"><path d="M17.848,0H10.257a.586.586,0,0,0-.414.172L.63,9.384a2.156,2.156,0,0,0,0,3.045L7.571,19.37A2.139,2.139,0,0,0,9.094,20h0a2.138,2.138,0,0,0,1.522-.629l9.213-9.213A.586.586,0,0,0,20,9.743V2.152A2.156,2.156,0,0,0,17.848,0Zm.981,9.5L9.787,18.542a.986.986,0,0,1-1.387,0L1.458,11.6a.983.983,0,0,1,0-1.388L10.5,1.171h7.348a.982.982,0,0,1,.981.981Zm0,0" transform="translate(0)" fill="#9bcb20"/><path d="M334.493,85.078a1.841,1.841,0,1,0,1.3.539A1.829,1.829,0,0,0,334.493,85.078Zm.473,2.314a.669.669,0,1,1,.2-.473A.665.665,0,0,1,334.967,87.393Zm0,0" transform="translate(-319.657 -81.755)" fill="#9bcb20"/></g></svg>