<svg xmlns="http://www.w3.org/2000/svg" width="29.66" height="45" viewBox="0 0 29.66 45"><g transform="translate(-87.264)"><g transform="translate(87.264 0)"><path d="M116.213,27.357a10.064,10.064,0,0,0-2.027-3.2,10.856,10.856,0,0,0-3.208-2.326,11.543,11.543,0,0,0-1.408-.578q.412-.216.793-.463a9.357,9.357,0,0,0,2.572-2.428,10.268,10.268,0,0,0,1.552-3.209,13.5,13.5,0,0,0,.52-3.8,12.23,12.23,0,0,0-.894-4.756,9.45,9.45,0,0,0-2.662-3.632A12.036,12.036,0,0,0,107.209.754,19.475,19.475,0,0,0,101.587,0,22.98,22.98,0,0,0,97.1.415a24.037,24.037,0,0,0-3.641,1.021A16.838,16.838,0,0,0,90.8,2.7a9.524,9.524,0,0,0-1.466,1.025l-.016.016a3.366,3.366,0,0,0-.612.761,3.694,3.694,0,0,0-.317.8l0,.011a5.34,5.34,0,0,0-.161,1.071c-.023.384-.035.842-.035,1.4a16.452,16.452,0,0,0,.071,1.692,5.184,5.184,0,0,0,.232,1.133l.013.035a1.707,1.707,0,0,0,.689.865,1.675,1.675,0,0,0,.9.239,3.334,3.334,0,0,0,1.675-.65c.548-.34,1.2-.706,1.933-1.089a18.815,18.815,0,0,1,2.54-1.042A8.659,8.659,0,0,1,99.108,8.5a6.461,6.461,0,0,1,2.267.351l.011,0a4.51,4.51,0,0,1,.778.367.879.879,0,1,0,.9-1.507,6.275,6.275,0,0,0-1.076-.509,8.079,8.079,0,0,0-2.884-.463,10.522,10.522,0,0,0-3.43.552A20.511,20.511,0,0,0,92.9,8.437l-.009,0c-.775.4-1.465.793-2.052,1.156a3.7,3.7,0,0,1-.708.37,3.792,3.792,0,0,1-.125-.685,14.987,14.987,0,0,1-.061-1.506c0-.52.01-.943.031-1.29a3.713,3.713,0,0,1,.1-.711,2.058,2.058,0,0,1,.162-.422l.01-.017a1.887,1.887,0,0,1,.3-.345A9.453,9.453,0,0,1,91.717,4.2a15.069,15.069,0,0,1,2.369-1.12,22.264,22.264,0,0,1,3.364-.941,21.24,21.24,0,0,1,4.137-.379,17.726,17.726,0,0,1,5.11.678,10.289,10.289,0,0,1,3.624,1.881,7.71,7.71,0,0,1,2.17,2.964,10.346,10.346,0,0,1,.758,4.079,11.751,11.751,0,0,1-.45,3.3,8.521,8.521,0,0,1-1.287,2.668l-.007.01a7.5,7.5,0,0,1-2.1,1.974,9.643,9.643,0,0,1-2.97,1.239.879.879,0,0,0-.671.854v.1a.879.879,0,0,0,.774.873,11.242,11.242,0,0,1,3.666,1.031,9.113,9.113,0,0,1,2.7,1.948A8.2,8.2,0,0,1,114.579,28a8.53,8.53,0,0,1,.588,3.168,11.563,11.563,0,0,1-1.1,5.15,10.727,10.727,0,0,1-3.077,3.751,14.448,14.448,0,0,1-4.8,2.353,22.97,22.97,0,0,1-6.251.815,23.6,23.6,0,0,1-3.855-.3,22.672,22.672,0,0,1-3.182-.741l-.009,0a13.278,13.278,0,0,1-2.225-.889,7.41,7.41,0,0,1-1.055-.625.834.834,0,0,1-.208-.269A5.088,5.088,0,0,1,89.2,39.8a5.547,5.547,0,0,1-.14-.949c-.028-.369-.042-.851-.042-1.52a5.4,5.4,0,0,1,.182-1.791c.007-.016.014-.03.021-.042a4.33,4.33,0,0,1,.648.3,21.433,21.433,0,0,0,2.1.967,24.345,24.345,0,0,0,2.985.962,15.861,15.861,0,0,0,3.968.458,11.653,11.653,0,0,0,3.386-.457,8.028,8.028,0,0,0,2.6-1.314l.013-.01a5.779,5.779,0,0,0,1.672-2.155l0-.01a6.884,6.884,0,0,0,.534-2.739,6.771,6.771,0,0,0-.65-2.985l0-.009a6.242,6.242,0,0,0-1.952-2.288,8.992,8.992,0,0,0-3.105-1.408,16.627,16.627,0,0,0-4.214-.481H93.6a1.293,1.293,0,0,1-.372-.041.375.375,0,0,1-.054-.078,2.152,2.152,0,0,1-.179-.681,12.208,12.208,0,0,1-.07-1.505,10.845,10.845,0,0,1,.069-1.411,1.753,1.753,0,0,1,.155-.6c.009-.015.017-.031.025-.047a.283.283,0,0,1,.031-.051.708.708,0,0,1,.285-.048h3.637a12.111,12.111,0,0,0,3.561-.478,7.788,7.788,0,0,0,2.742-1.41,6.22,6.22,0,0,0,1.538-1.886.879.879,0,0,0-1.554-.821,4.4,4.4,0,0,1-1.1,1.35,5.962,5.962,0,0,1-2.129,1.083l-.012,0a10.364,10.364,0,0,1-3.045.4H93.488a2.42,2.42,0,0,0-1.025.211,1.785,1.785,0,0,0-.851.835,3.434,3.434,0,0,0-.361,1.21,12.307,12.307,0,0,0-.086,1.653,13.632,13.632,0,0,0,.085,1.735,3.839,3.839,0,0,0,.368,1.274l.007.013a1.88,1.88,0,0,0,.922.866l.016.006a2.785,2.785,0,0,0,1.035.17h3.615a14.891,14.891,0,0,1,3.766.423,7.263,7.263,0,0,1,2.507,1.121l.012.009a4.443,4.443,0,0,1,1.411,1.648,4.966,4.966,0,0,1,.472,2.212,5.143,5.143,0,0,1-.389,2.039,3.98,3.98,0,0,1-1.162,1.493,6.285,6.285,0,0,1-2.025,1.017,9.912,9.912,0,0,1-2.873.381,14.117,14.117,0,0,1-3.526-.4,22.606,22.606,0,0,1-2.767-.89,19.653,19.653,0,0,1-1.928-.884,3.462,3.462,0,0,0-1.532-.536,1.721,1.721,0,0,0-1.586,1.117l-.008.019a6.874,6.874,0,0,0-.321,2.476c0,.714.015,1.24.047,1.653A7.169,7.169,0,0,0,87.5,40.25a6.77,6.77,0,0,0,.292.862l.009.02a2.581,2.581,0,0,0,.658.88l.021.018a8.26,8.26,0,0,0,1.377.841,15,15,0,0,0,2.514,1.008,24.411,24.411,0,0,0,3.426.8,25.354,25.354,0,0,0,4.145.32,24.731,24.731,0,0,0,6.736-.883,16.2,16.2,0,0,0,5.381-2.648,12.475,12.475,0,0,0,3.581-4.364,13.3,13.3,0,0,0,1.281-5.932,10.27,10.27,0,0,0-.711-3.816Z" transform="translate(-87.264 0)" fill="#93c01f"/><path d="M278.358,124.892a.879.879,0,0,0-.879-.879h0a.879.879,0,1,0,.88.879Z" transform="translate(-259.959 -113.113)" fill="#93c01f"/></g></g></svg>