<svg xmlns="http://www.w3.org/2000/svg" width="30.272" height="45" viewBox="0 0 30.272 45"><g transform="translate(-83.786)"><g transform="translate(83.786 0)"><path d="M113.947,38.879a4.475,4.475,0,0,0-.371-1.332,2.276,2.276,0,0,0-.768-.94,1.872,1.872,0,0,0-1.108-.36H97.043l3.5-3.579a84.056,84.056,0,0,0,6.079-6.59,35.292,35.292,0,0,0,3.61-5.259,16.588,16.588,0,0,0,1.736-4.575,22.368,22.368,0,0,0,.408-4.235,12.881,12.881,0,0,0-.868-4.738,10.257,10.257,0,0,0-2.67-3.871A12.525,12.525,0,0,0,104.4.887,19.1,19.1,0,0,0,98.317,0,21.508,21.508,0,0,0,94.1.41a28.082,28.082,0,0,0-3.668,1.007A18.337,18.337,0,0,0,87.59,2.666a9.1,9.1,0,0,0-1.682,1.119l-.027.025a4.926,4.926,0,0,0-.7.828l-.012.02a3.18,3.18,0,0,0-.354.9,6.583,6.583,0,0,0-.178,1.01c-.034.35-.049.77-.049,1.362A18.834,18.834,0,0,0,84.676,9.9a9.888,9.888,0,0,0,.234,1.364l.01.036a2.142,2.142,0,0,0,.607,1.059,1.613,1.613,0,0,0,1.1.423A3.05,3.05,0,0,0,88.3,12.12c.472-.314,1.068-.667,1.818-1.075a15.25,15.25,0,0,1,2.479-1.037,10.23,10.23,0,0,1,3.157-.45,5.611,5.611,0,0,1,2.065.338,3.81,3.81,0,0,1,1.382.917,3.919,3.919,0,0,1,.837,1.382,5.132,5.132,0,0,1,.3,1.752,10.9,10.9,0,0,1-.26,2.312,12.2,12.2,0,0,1-.964,2.674.879.879,0,0,0,1.582.766,13.948,13.948,0,0,0,1.1-3.065,12.652,12.652,0,0,0,.3-2.687,6.87,6.87,0,0,0-.4-2.342,5.657,5.657,0,0,0-1.206-1.989,5.534,5.534,0,0,0-2.01-1.349A7.343,7.343,0,0,0,95.75,7.8a11.97,11.97,0,0,0-3.7.536A17,17,0,0,0,89.277,9.5c-.8.437-1.445.817-1.962,1.162l-.011.007a2.615,2.615,0,0,1-.624.344,1.45,1.45,0,0,1-.069-.189,8.2,8.2,0,0,1-.187-1.107,17.115,17.115,0,0,1-.073-1.788c0-.526.013-.906.041-1.19a4.842,4.842,0,0,1,.133-.751l.007-.027a1.472,1.472,0,0,1,.152-.4,3.323,3.323,0,0,1,.428-.493A7.635,7.635,0,0,1,88.446,4.2a16.633,16.633,0,0,1,2.576-1.126,26.32,26.32,0,0,1,3.432-.942,19.738,19.738,0,0,1,3.863-.375,17.368,17.368,0,0,1,5.523.794,10.787,10.787,0,0,1,3.817,2.15,8.4,8.4,0,0,1,2.216,3.213,11.131,11.131,0,0,1,.746,4.094,20.59,20.59,0,0,1-.375,3.9,14.868,14.868,0,0,1-1.559,4.081,33.571,33.571,0,0,1-3.43,4.987A82.392,82.392,0,0,1,99.3,31.425l-.01.01-4.965,5.077a.879.879,0,0,0,.628,1.493H111.7a.108.108,0,0,1,.078.026l.05.035a.631.631,0,0,1,.167.248l.006.013a2.955,2.955,0,0,1,.208.814A10.071,10.071,0,0,1,112.3,40.6a12.778,12.778,0,0,1-.072,1.527,4.593,4.593,0,0,1-.2.9.669.669,0,0,1-.115.2.173.173,0,0,1-.081.016H87.389a4.2,4.2,0,0,1-1.024-.107.78.78,0,0,1-.408-.23,1.591,1.591,0,0,1-.285-.7,8.758,8.758,0,0,1-.127-1.692,13.894,13.894,0,0,1,.093-1.747,4.1,4.1,0,0,1,.29-1.135,6.034,6.034,0,0,1,.585-1.023,9.971,9.971,0,0,1,.99-1.164l.012-.013,7.361-7.865c.375-.392.733-.776,1.064-1.142a.879.879,0,0,0-1.3-1.181c-.322.355-.671.729-1.036,1.111l-.006.007-7.358,7.862a11.709,11.709,0,0,0-1.158,1.367,7.807,7.807,0,0,0-.758,1.327,5.8,5.8,0,0,0-.427,1.622,15.378,15.378,0,0,0-.108,1.974,10.274,10.274,0,0,0,.164,2.052,3.221,3.221,0,0,0,.677,1.493,2.53,2.53,0,0,0,1.3.781A5.919,5.919,0,0,0,87.389,45h24.445a1.916,1.916,0,0,0,1.092-.334l.022-.015a2.208,2.208,0,0,0,.722-.988l.014-.039a6.3,6.3,0,0,0,.288-1.277,14.43,14.43,0,0,0,.085-1.745,11.816,11.816,0,0,0-.111-1.722Z" transform="translate(-83.786 0)" fill="#93c01f"/><path d="M234.873,249.94a.879.879,0,0,0-.879-.879h0a.879.879,0,1,0,.88.879Z" transform="translate(-219.99 -227.171)" fill="#93c01f"/></g></g></svg>