<svg xmlns="http://www.w3.org/2000/svg" width="28.566" height="18" viewBox="0 0 28.566 18"><path d="M28.27,1.605a.606.606,0,0,0-.6-.011L21.116,5.173V3.026A3.029,3.029,0,0,0,18.09,0H3.027A3.029,3.029,0,0,0,0,3.026V14.974A3.029,3.029,0,0,0,3.027,18H18.09a3.029,3.029,0,0,0,3.026-3.026V12.866l6.554,3.579a.605.605,0,0,0,.9-.531V2.126a.605.605,0,0,0-.3-.52ZM19.906,14.974A1.817,1.817,0,0,1,18.09,16.79H3.027a1.818,1.818,0,0,1-1.816-1.816V3.026A1.818,1.818,0,0,1,3.027,1.21H18.09a1.818,1.818,0,0,1,1.816,1.816Zm7.45-.081-6.239-3.407V6.552l6.239-3.406Zm0,0" transform="translate(0 0)"/></svg>