<svg xmlns="http://www.w3.org/2000/svg" width="45" height="45" viewBox="0 0 45 45"><defs><style>.a{isolation:isolate;}.b{fill:#dfdfdf;}.c{fill:#d3d3d3;}.d{fill:#7f7f7f;}</style></defs><g class="a" transform="translate(-16.516 -33.04)"><circle class="b" cx="22.5" cy="22.5" r="22.5" transform="translate(16.516 33.04)"/><path class="c" d="M42.283,123.4A22.5,22.5,0,0,1,24.825,86.706a22.5,22.5,0,1,0,31.649,31.649A22.4,22.4,0,0,1,42.283,123.4Z" transform="translate(0 -48.624)"/><g transform="translate(26.413 50.69)"><path class="d" d="M310.748,224.4a.969.969,0,0,1-.757-.362,2.911,2.911,0,0,0-4.695,0,.97.97,0,0,1-1.512-1.215,4.849,4.849,0,0,1,7.719,0,.97.97,0,0,1-.755,1.577Z" transform="translate(-286.498 -220.904)"/><path class="d" d="M129.038,224.4a.968.968,0,0,1-.757-.362,2.911,2.911,0,0,0-4.695,0,.97.97,0,0,1-1.512-1.215,4.849,4.849,0,0,1,7.719,0,.97.97,0,0,1-.755,1.577Z" transform="translate(-121.86 -220.904)"/><path class="d" d="M156.807,343.083a12.551,12.551,0,0,1-10.094-5.053.97.97,0,0,1,1.562-1.149,10.67,10.67,0,0,0,17.064,0,.97.97,0,1,1,1.562,1.149A12.555,12.555,0,0,1,156.807,343.083Z" transform="translate(-144.207 -325.625)"/></g></g></svg>