<svg xmlns="http://www.w3.org/2000/svg" width="45" height="45" viewBox="0 0 45 45"><defs><style>.a{isolation:isolate;}.b{fill:#ffe17d;}.c{fill:#7d5046;}.d{fill:#9c6846;}.e{fill:#ffd164;}.f{fill:#aa7346;}</style></defs><g class="a"><circle class="b" cx="22.5" cy="22.5" r="22.5"/><path class="c" d="M150.459,228.049h0a1.814,1.814,0,0,1-1.814-1.814v-1.452a1.814,1.814,0,0,1,1.814-1.814h0a1.814,1.814,0,0,1,1.815,1.814v1.452A1.814,1.814,0,0,1,150.459,228.049Z" transform="translate(-135.58 -203.371)"/><path class="d" d="M165.524,222.968a1.822,1.822,0,0,0-.363.037v2.5a1.089,1.089,0,0,0,2.177,0v-.726A1.814,1.814,0,0,0,165.524,222.968Z" transform="translate(-150.645 -203.371)"/><path class="c" d="M323.879,228.049h0a1.814,1.814,0,0,1-1.815-1.814v-1.452a1.814,1.814,0,0,1,1.815-1.814h0a1.814,1.814,0,0,1,1.814,1.814v1.452A1.814,1.814,0,0,1,323.879,228.049Z" transform="translate(-293.758 -203.371)"/><path class="d" d="M338.944,222.968a1.822,1.822,0,0,0-.363.037v2.5a1.089,1.089,0,0,0,2.177,0v-.726A1.815,1.815,0,0,0,338.944,222.968Z" transform="translate(-308.823 -203.371)"/><path class="e" d="M25.766,94.067A22.5,22.5,0,0,1,8.309,57.376,22.5,22.5,0,1,0,39.957,89.024,22.4,22.4,0,0,1,25.766,94.067Z" transform="translate(0 -52.333)"/><g transform="translate(10.706 14.334)"><path class="f" d="M129.245,167.085a.914.914,0,0,1-.287-.047l-6.532-2.177a.907.907,0,0,1,.574-1.722l6.532,2.177a.908.908,0,0,1-.287,1.768Z" transform="translate(-121.805 -163.092)"/><path class="f" d="M296.132,167.085a.908.908,0,0,1-.287-1.768l6.532-2.177a.907.907,0,0,1,.574,1.722l-6.532,2.177A.911.911,0,0,1,296.132,167.085Z" transform="translate(-279.982 -163.093)"/></g><path class="d" d="M193.837,326.519a27.08,27.08,0,0,1,5.219.5.655.655,0,0,0,.712-.911,6.372,6.372,0,0,0-11.861,0,.655.655,0,0,0,.712.911A27.078,27.078,0,0,1,193.837,326.519Z" transform="translate(-171.343 -293.758)"/><path class="c" d="M196.012,324.242a11.253,11.253,0,0,1,5.775,1.518,6.36,6.36,0,0,0-11.55,0A11.253,11.253,0,0,1,196.012,324.242Z" transform="translate(-173.517 -293.758)"/></g></svg>