<svg id="confused" xmlns="http://www.w3.org/2000/svg" width="45" height="45" viewBox="0 0 45 45">
  <circle id="Ellipse_443" data-name="Ellipse 443" cx="22.5" cy="22.5" r="22.5" fill="#dfdfdf"/>
  <path id="Path_60586" data-name="Path 60586" d="M56.72,74.235A22.5,22.5,0,0,0,96.735,88.361,22.5,22.5,0,0,1,65.094,56.72,22.476,22.476,0,0,0,56.72,74.235Z" transform="translate(-56.72 -51.735)" fill="#d3d3d3"/>
  <g id="Group_5090" data-name="Group 5090" transform="translate(13.254 14.849)">
    <path id="Path_60587" data-name="Path 60587" d="M161.563,331.48a1.128,1.128,0,0,1-1.223,1H142.647a1.02,1.02,0,1,1,0-2h17.692A1.128,1.128,0,0,1,161.563,331.48Z" transform="translate(-140.98 -316.282)" fill="#7f7f7f"/>
  </g>
  <path id="Path_60588" data-name="Path 60588" d="M150.46,203.275h0a1.815,1.815,0,0,1-1.815-1.814v-1.452a1.815,1.815,0,0,1,1.815-1.814h0a1.814,1.814,0,0,1,1.814,1.814v1.452A1.814,1.814,0,0,1,150.46,203.275Z" transform="translate(-134.947 -182.775)" fill="#5c5c5c"/>
  <path id="Path_60589" data-name="Path 60589" d="M165.524,198.194a1.822,1.822,0,0,0-.363.037v2.5a1.089,1.089,0,0,0,2.177,0v-.726A1.814,1.814,0,0,0,165.524,198.194Z" transform="translate(-150.012 -182.775)" fill="#747474"/>
  <path id="Path_60590" data-name="Path 60590" d="M323.879,203.275h0a1.814,1.814,0,0,1-1.814-1.814v-1.452a1.814,1.814,0,0,1,1.814-1.814h0a1.815,1.815,0,0,1,1.815,1.814v1.452A1.815,1.815,0,0,1,323.879,203.275Z" transform="translate(-293.125 -182.775)" fill="#5c5c5c"/>
  <path id="Path_60591" data-name="Path 60591" d="M338.944,198.194a1.822,1.822,0,0,0-.363.037v2.5a1.089,1.089,0,1,0,2.177,0v-.726A1.814,1.814,0,0,0,338.944,198.194Z" transform="translate(-308.189 -182.775)" fill="#747474"/>
</svg>
