<svg xmlns="http://www.w3.org/2000/svg" width="45" height="45" viewBox="0 0 45 45"><defs><style>.a{isolation:isolate;}.b{fill:#ffe17d;}.c{fill:#ffd164;}.d{fill:#9c6846;}.e{fill:#7d5046;}.f{fill:#e6646e;}.g{fill:#dc4655;}</style></defs><g class="a"><circle class="b" cx="22.5" cy="22.5" r="22.5"/><path class="c" d="M25.766,94.067A22.5,22.5,0,0,1,8.309,57.376,22.5,22.5,0,1,0,39.957,89.024,22.4,22.4,0,0,1,25.766,94.067Z" transform="translate(0 -52.333)"/><path class="d" d="M127.838,306.8a53.68,53.68,0,0,1-11.593-1.237.63.63,0,0,0-.722.815,12.79,12.79,0,0,0,24.629,0,.63.63,0,0,0-.722-.815A53.678,53.678,0,0,1,127.838,306.8Z" transform="translate(-105.343 -278.693)"/><path class="e" d="M127.845,309.9a65.293,65.293,0,0,0,11.238-1,13.538,13.538,0,0,0,1.07-2.522.63.63,0,0,0-.722-.815,54.944,54.944,0,0,1-23.185,0,.63.63,0,0,0-.722.815,13.54,13.54,0,0,0,1.068,2.519A65.3,65.3,0,0,0,127.845,309.9Z" transform="translate(-105.343 -278.694)"/><path class="f" d="M93.9,142.27c1.234-1.551,4.155-5.715,2.489-8.546a3.3,3.3,0,0,0-5.535-.179.823.823,0,0,1-.944.309,3.3,3.3,0,0,0-4.357,3.419c.332,3.268,5.15,4.9,7.063,5.417A1.231,1.231,0,0,0,93.9,142.27Z" transform="translate(-78.02 -120.516)"/><path class="f" d="M300.28,142.27c-1.234-1.551-4.155-5.715-2.489-8.546a3.3,3.3,0,0,1,5.535-.179.823.823,0,0,0,.944.309,3.3,3.3,0,0,1,4.357,3.419c-.332,3.268-5.15,4.9-7.063,5.417A1.231,1.231,0,0,1,300.28,142.27Z" transform="translate(-271.162 -120.516)"/><path class="g" d="M94.534,159.134c-1.912-.521-6.731-2.15-7.063-5.417a3.2,3.2,0,0,1,.21-1.482,3.453,3.453,0,0,0-.5.231,3.281,3.281,0,0,0-1.626,3.146c.332,3.268,5.15,4.9,7.063,5.417a1.23,1.23,0,0,0,1.285-.421c.284-.357.657-.856,1.043-1.441A1.215,1.215,0,0,1,94.534,159.134Z" transform="translate(-78.02 -138.855)"/><g transform="translate(26.129 11.613)"><path class="f" d="M300.28,142.27c-1.234-1.551-4.155-5.715-2.489-8.546a3.3,3.3,0,0,1,5.535-.179.823.823,0,0,0,.944.309,3.3,3.3,0,0,1,4.357,3.419c-.332,3.268-5.15,4.9-7.063,5.417A1.231,1.231,0,0,1,300.28,142.27Z" transform="translate(-297.291 -132.129)"/></g><path class="g" d="M302.717,141.827c-1.234-1.551-4.155-5.715-2.489-8.546a3.2,3.2,0,0,1,1.034-1.064c-.1-.021-.194-.055-.3-.067a3.281,3.281,0,0,0-3.173,1.574c-1.666,2.831,1.255,7,2.489,8.546a1.231,1.231,0,0,0,1.285.421c.423-.115.992-.288,1.62-.518A1.214,1.214,0,0,1,302.717,141.827Z" transform="translate(-271.161 -120.516)"/></g></svg>