<svg xmlns="http://www.w3.org/2000/svg" width="45" height="45" viewBox="0 0 45 45"><defs><style>.a{isolation:isolate;}.b{fill:#ffe17d;}.c{fill:#7d5046;}.d{fill:#9c6846;}.e{fill:#aa7346;}.f{fill:#ffd164;}</style></defs><g class="a"><circle class="b" cx="22.5" cy="22.5" r="22.5"/><path class="c" d="M150.46,203.275h0a1.815,1.815,0,0,1-1.815-1.814v-1.452a1.815,1.815,0,0,1,1.815-1.814h0a1.814,1.814,0,0,1,1.814,1.814v1.452A1.814,1.814,0,0,1,150.46,203.275Z" transform="translate(-135.58 -180.775)"/><path class="d" d="M165.524,198.194a1.822,1.822,0,0,0-.363.037v2.5a1.089,1.089,0,0,0,2.177,0v-.726A1.814,1.814,0,0,0,165.524,198.194Z" transform="translate(-150.645 -180.775)"/><path class="c" d="M323.879,203.275h0a1.814,1.814,0,0,1-1.814-1.814v-1.452a1.814,1.814,0,0,1,1.814-1.814h0a1.815,1.815,0,0,1,1.815,1.814v1.452A1.815,1.815,0,0,1,323.879,203.275Z" transform="translate(-293.759 -180.775)"/><path class="d" d="M338.944,198.194a1.822,1.822,0,0,0-.363.037v2.5a1.089,1.089,0,1,0,2.177,0v-.726A1.814,1.814,0,0,0,338.944,198.194Z" transform="translate(-308.823 -180.775)"/><path class="e" d="M163.97,332.975a.907.907,0,0,1-.668-1.522,11.425,11.425,0,0,1,15.851,0,.907.907,0,1,1-1.335,1.228,9.625,9.625,0,0,0-13.181,0A.9.9,0,0,1,163.97,332.975Z" transform="translate(-148.73 -299.406)"/><path class="f" d="M25.766,94.067A22.5,22.5,0,0,1,8.309,57.376,22.5,22.5,0,1,0,39.957,89.024,22.4,22.4,0,0,1,25.766,94.067Z" transform="translate(0 -52.333)"/></g></svg>